<?xml version="1.0" encoding="UTF-8"?>
<svg version="1.1" xmlns="http://www.w3.org/2000/svg" width="321" height="362">
<path d="M0 0 C1.43513068 -0.00299816 2.87026056 -0.00640219 4.3053894 -0.01017761 C8.17511719 -0.01895121 12.04482283 -0.0213528 15.9145596 -0.0219934 C18.33721153 -0.02270725 20.75985792 -0.0248478 23.18250847 -0.02749062 C31.64788034 -0.03671938 40.11323654 -0.04082827 48.57861328 -0.04003906 C56.44939532 -0.03943772 64.32010896 -0.05000706 72.19087368 -0.06578273 C78.96908245 -0.07888091 85.7472689 -0.08422206 92.52549022 -0.08358365 C96.56492111 -0.0833295 100.604291 -0.08613535 104.64370918 -0.0967617 C108.44163771 -0.10648213 112.23944737 -0.106495 116.03738022 -0.09924507 C117.42524706 -0.09820439 118.81312148 -0.10053122 120.20097542 -0.10660553 C136.13659494 -0.17179844 147.27227272 2.92128884 159.24389648 13.70385742 C160.51342773 15.14526367 160.51342773 15.14526367 160.51342773 17.14526367 C161.17342773 17.14526367 161.83342773 17.14526367 162.51342773 17.14526367 C163.49506195 19.08151466 164.47365228 21.01930906 165.45092773 22.95776367 C165.99620117 24.03670898 166.54147461 25.1156543 167.10327148 26.22729492 C168.92211134 29.99093307 169.63583263 32.69932583 169.57592773 36.83276367 C169.5669043 37.64100586 169.55788086 38.44924805 169.54858398 39.28198242 C169.53118164 40.20430664 169.53118164 40.20430664 169.51342773 41.14526367 C168.52780759 41.1488462 168.52780759 41.1488462 167.52227592 41.15250111 C151.47777586 41.21183347 135.43344642 41.28749868 119.38911247 41.38097858 C111.62994629 41.42579903 103.8708246 41.46524473 96.11157227 41.49169922 C89.34261323 41.5147914 82.57379664 41.54831273 75.80495083 41.59396523 C72.22631914 41.61774752 68.6478272 41.63657379 65.0691185 41.64287758 C61.05800333 41.65013961 57.04736969 41.68070294 53.03637695 41.71289062 C51.87111481 41.71145554 50.70585266 41.71002045 49.50527954 41.70854187 C38.54335849 41.83202043 27.71745023 43.40546898 17.95092773 48.58276367 C16.27836914 49.44708008 16.27836914 49.44708008 14.57202148 50.32885742 C11.4665715 52.07754235 11.4665715 52.07754235 8.73608398 54.36791992 C6.51342773 56.14526367 6.51342773 56.14526367 4.51342773 56.14526367 C4.51342773 56.80526367 4.51342773 57.46526367 4.51342773 58.14526367 C3.13842773 59.77026367 3.13842773 59.77026367 1.51342773 61.14526367 C0.85342773 61.14526367 0.19342773 61.14526367 -0.48657227 61.14526367 C-0.48657227 61.80526367 -0.48657227 62.46526367 -0.48657227 63.14526367 C-1.14657227 63.14526367 -1.80657227 63.14526367 -2.48657227 63.14526367 C-2.74567383 63.69569336 -3.00477539 64.24612305 -3.27172852 64.81323242 C-5.16182072 68.44148016 -7.47969855 71.78496459 -9.73266602 75.19604492 C-13.07312717 80.81307871 -14.90724911 86.23985259 -16.11157227 92.64526367 C-16.35133789 93.89307617 -16.59110352 95.14088867 -16.83813477 96.42651367 C-19.48637796 111.61402886 -17.78547049 124.24131275 -14.48657227 139.14526367 C-10.85657227 138.81526367 -7.22657227 138.48526367 -3.48657227 138.14526367 C-3.6915332 137.33702148 -3.89649414 136.5287793 -4.10766602 135.69604492 C-4.37708008 134.62741211 -4.64649414 133.5587793 -4.92407227 132.45776367 C-5.1909082 131.40202148 -5.45774414 130.3462793 -5.73266602 129.25854492 C-5.98145508 128.23116211 -6.23024414 127.2037793 -6.48657227 126.14526367 C-6.67864258 125.36538086 -6.87071289 124.58549805 -7.06860352 123.78198242 C-8.84681009 112.56432415 -7.79100568 100.94586549 -4.48657227 90.14526367 C-4.16172852 89.02764648 -4.16172852 89.02764648 -3.83032227 87.88745117 C-0.61068941 78.11356571 6.4052567 69.31452424 14.51342773 63.14526367 C15.17342773 63.14526367 15.83342773 63.14526367 16.51342773 63.14526367 C16.51342773 62.48526367 16.51342773 61.82526367 16.51342773 61.14526367 C18.23198126 60.18844739 19.96419633 59.25617455 21.70092773 58.33276367 C22.66385742 57.81069336 23.62678711 57.28862305 24.61889648 56.75073242 C34.18209278 52.38844681 44.48118432 51.70841214 54.83105469 51.8046875 C56.09116364 51.80424942 57.35127258 51.80381134 58.64956665 51.80335999 C62.05997841 51.8025095 65.47006481 51.81997888 68.88040185 51.84108186 C72.46111863 51.86000925 76.04184528 51.86161161 79.62260437 51.86515808 C86.38315047 51.87443189 93.14354866 51.89898146 99.90403003 51.92920655 C107.6091216 51.96289707 115.31422075 51.97927316 123.01936781 51.99429286 C138.85080873 52.02553601 154.68209322 52.07881826 170.51342773 52.14526367 C170.51342773 56.76526367 170.51342773 61.38526367 170.51342773 66.14526367 C168.96375809 66.1489093 167.41408844 66.15255493 165.81745911 66.15631104 C151.17880482 66.1933297 136.54039318 66.25094327 121.90190601 66.32916641 C114.37698353 66.36885551 106.85216408 66.40129912 99.32714844 66.41625977 C92.76289046 66.42932916 86.19886019 66.4564272 79.63473052 66.49987674 C76.16395519 66.52237383 72.69345945 66.53818151 69.22260475 66.53714752 C65.33339281 66.53625323 61.44474526 66.56670153 57.55566406 66.59936523 C56.42420959 66.59433487 55.29275513 66.5893045 54.12701416 66.5841217 C43.02471286 66.7274023 33.24572718 69.15942411 24.51342773 76.14526367 C23.85342773 76.14526367 23.19342773 76.14526367 22.51342773 76.14526367 C22.01842773 77.63026367 22.01842773 77.63026367 21.51342773 79.14526367 C19.84676107 80.81193034 18.1800944 82.47859701 16.51342773 84.14526367 C8.15734862 95.2867025 6.18074831 107.44971836 7.51342773 121.14526367 C8.31876137 124.66676801 9.32366868 127.97744179 10.54077148 131.37573242 C11.51342773 134.14526367 11.51342773 134.14526367 12.51342773 139.14526367 C16.80342773 138.81526367 21.09342773 138.48526367 25.51342773 138.14526367 C24.56467773 136.66026367 23.61592773 135.17526367 22.63842773 133.64526367 C17.17460969 124.4315139 16.02713614 114.95643116 18.04858398 104.33276367 C19.50163592 99.1240092 21.63543716 94.71035217 24.51342773 90.14526367 C25.17342773 90.14526367 25.83342773 90.14526367 26.51342773 90.14526367 C26.78155273 89.50588867 27.04967773 88.86651367 27.32592773 88.20776367 C28.51342773 86.14526367 28.51342773 86.14526367 31.51342773 85.14526367 C31.51342773 84.48526367 31.51342773 83.82526367 31.51342773 83.14526367 C40.75182582 76.62404149 51.61514249 76.99615103 62.43725586 77.03173828 C63.60885254 77.03159225 64.78044922 77.03144623 65.98754883 77.03129578 C69.83994431 77.03198954 73.69229076 77.03975679 77.54467773 77.04760742 C80.22367434 77.04947351 82.90266826 77.05094574 85.58166504 77.05189514 C91.89961555 77.05499446 98.21754861 77.06318888 104.53549147 77.07324463 C111.73263557 77.08444935 118.92978053 77.08992718 126.12693119 77.09494007 C140.92243893 77.10537276 155.71793303 77.12294495 170.51342773 77.14526367 C170.58369903 92.21015255 170.6365043 107.27502867 170.66886425 122.34004688 C170.684293 129.3359661 170.7053055 136.33178312 170.73974609 143.32763672 C170.77299103 150.08387401 170.79030073 156.84000523 170.79805946 163.5963192 C170.80358604 166.16899978 170.81437797 168.74167481 170.8306179 171.31431007 C170.85251691 174.92841577 170.85538939 178.54208822 170.85400391 182.15625 C170.86478973 183.21073837 170.87557556 184.26522675 170.88668823 185.35166931 C170.8295446 199.2021962 166.52628982 208.94513748 157.07592773 218.95776367 C146.3931246 229.06954838 135.23466947 230.59705966 121.01049805 230.56518555 C119.45392248 230.5725361 117.89735234 230.58112518 116.34078979 230.59085083 C112.13392374 230.61297502 107.9272541 230.616002 103.72033787 230.61410332 C100.19689872 230.61398316 96.6735005 230.62256582 93.15007281 230.63088083 C84.82975679 230.65008325 76.50954108 230.65301072 68.18920898 230.64624023 C59.63389798 230.63960598 51.07901883 230.66244617 42.52379537 230.69955397 C35.15444449 230.73034672 27.78523182 230.74160053 20.41581798 230.73771715 C16.02513907 230.73565904 11.63479618 230.74098227 7.24417877 230.76560974 C3.11036109 230.78803265 -1.02275972 230.78587169 -5.15658188 230.76568222 C-6.66371335 230.76229911 -8.17089318 230.76724323 -9.67795944 230.7816658 C-23.38635927 230.9036819 -34.49168739 228.10075475 -44.484375 218.44848633 C-52.03254134 210.89906385 -56.42401069 200.77087944 -57.48657227 190.14526367 C-55.79557879 188.4542702 -53.67017179 189.01331975 -51.35317993 189.00723267 C-50.24020538 189.00177933 -49.12723083 188.99632599 -47.98052979 188.9907074 C-46.1323465 188.98914391 -46.1323465 188.98914391 -44.24682617 188.98754883 C-42.26729841 188.97974908 -40.28777066 188.9719453 -38.30824351 188.96399093 C-36.17243249 188.95626115 -34.03662581 188.95088718 -31.90080643 188.94603348 C-27.44501038 188.93536046 -22.98929049 188.91511337 -18.53353882 188.89291382 C-5.8598788 188.8309795 6.81377867 188.77710429 19.48754883 188.74389648 C26.48134157 188.72549065 33.47500849 188.69647249 40.46870863 188.65589178 C44.16740714 188.63490553 47.86594756 188.61937665 51.56470871 188.6170845 C55.70322594 188.61451725 59.84130747 188.58895234 63.97973633 188.56176758 C65.19161621 188.56477371 66.40349609 188.56777985 67.65209961 188.57087708 C80.5621779 188.4453822 90.3610545 185.04615559 100.95092773 177.83276367 C103.51342773 176.14526367 103.51342773 176.14526367 105.51342773 176.14526367 C105.51342773 175.48526367 105.51342773 174.82526367 105.51342773 174.14526367 C106.62178808 173.16374565 107.77788377 172.23598466 108.95092773 171.33276367 C120.46151188 161.47529534 127.2770904 146.9954387 129.51342773 132.14526367 C129.78616006 127.82870273 129.79329924 123.5316646 129.76342773 119.20776367 C129.77116211 118.09208008 129.77889648 116.97639648 129.78686523 115.8269043 C129.7727363 109.79738299 129.37198257 104.2275688 127.94213867 98.36181641 C127.51342773 96.14526367 127.51342773 96.14526367 127.51342773 91.14526367 C123.55342773 91.14526367 119.59342773 91.14526367 115.51342773 91.14526367 C115.98780273 92.89838867 116.46217773 94.65151367 116.95092773 96.45776367 C118.42500839 102.36799272 119.21701701 108.06884386 119.51342773 114.14526367 C119.55467773 114.84651367 119.59592773 115.54776367 119.63842773 116.27026367 C120.15325593 133.25959418 116.14021241 147.13703197 105.24780273 160.41479492 C103.51342773 162.14526367 103.51342773 162.14526367 101.51342773 162.14526367 C101.18342773 163.13526367 100.85342773 164.12526367 100.51342773 165.14526367 C99.85342773 165.14526367 99.19342773 165.14526367 98.51342773 165.14526367 C98.51342773 165.80526367 98.51342773 166.46526367 98.51342773 167.14526367 C85.53191218 176.2608795 73.63593599 178.26276113 58.18408203 178.38232422 C56.34394279 178.40199249 56.34394279 178.40199249 54.46662903 178.42205811 C51.11992136 178.45656308 47.77323514 178.48679867 44.42646766 178.51444983 C42.33504493 178.53200426 40.24363825 178.55087193 38.15223122 178.57019997 C30.85559159 178.63758743 23.55892859 178.69999541 16.26220703 178.7578125 C9.45861395 178.8118563 2.65518651 178.87697329 -4.14825755 178.94715089 C-9.9937634 179.00695521 -15.83930489 179.0590375 -21.68493527 179.10507804 C-25.17481783 179.13270011 -28.66460276 179.16349693 -32.15438271 179.20209312 C-36.03759726 179.24473211 -39.92082929 179.27134173 -43.80419922 179.29638672 C-45.544207 179.31884209 -45.544207 179.31884209 -47.31936646 179.3417511 C-48.37218307 179.34597076 -49.42499969 179.35019043 -50.50971985 179.35453796 C-51.88706787 179.36641663 -51.88706787 179.36641663 -53.2922411 179.37853527 C-55.48657227 179.14526367 -55.48657227 179.14526367 -57.48657227 177.14526367 C-57.68188477 174.32495117 -57.68188477 174.32495117 -57.61157227 171.02026367 C-57.59352539 169.92456055 -57.57547852 168.82885742 -57.55688477 167.69995117 C-57.53368164 166.8569043 -57.51047852 166.01385742 -57.48657227 165.14526367 C-54.14445208 164.39444654 -51.07442242 164.02503242 -47.65162659 164.04519653 C-46.23284462 164.04963776 -46.23284462 164.04963776 -44.78540039 164.0541687 C-43.75938721 164.06247711 -42.73337402 164.07078552 -41.67626953 164.0793457 C-40.58612045 164.08401855 -39.49597137 164.08869141 -38.37278748 164.09350586 C-36.00634833 164.10400175 -33.63991803 164.11666225 -31.27350044 164.1312294 C-27.51810172 164.15328097 -23.76275375 164.16734331 -20.00730896 164.17892456 C-9.32950315 164.21247856 1.34820669 164.25363687 12.02587891 164.31665039 C18.56093147 164.35512394 25.09593853 164.37738323 31.63109016 164.39095688 C34.11198404 164.39896733 36.59286689 164.41251333 39.07369804 164.43188858 C64.75129209 164.97001705 64.75129209 164.97001705 87.66186523 154.48901367 C89.51342773 153.14526367 89.51342773 153.14526367 91.51342773 153.14526367 C91.91754883 152.27321289 91.91754883 152.27321289 92.32983398 151.38354492 C93.51954186 149.13370132 94.86304397 147.31660827 96.45092773 145.33276367 C102.95389183 136.77290096 104.89480605 127.28427336 104.82592773 116.77026367 C104.82391357 115.9360791 104.82189941 115.10189453 104.81982422 114.24243164 C104.73289592 108.90493014 104.18794385 104.1819194 102.26733398 99.15307617 C101.51342773 97.14526367 101.51342773 97.14526367 100.51342773 92.14526367 C93.58342773 91.65026367 93.58342773 91.65026367 86.51342773 91.14526367 C87.27655273 92.34151367 88.03967773 93.53776367 88.82592773 94.77026367 C94.49687751 104.96830687 96.09737157 117.46516059 93.33764648 128.77807617 C89.9523164 138.50087252 83.77565706 145.15330589 74.89233398 150.03198242 C67.9977526 153.25851066 62.06520905 153.42562084 54.55712891 153.38818359 C53.35816986 153.39008194 52.15921082 153.39198029 50.92391968 153.39393616 C47.64945671 153.39699847 44.37516138 153.39115577 41.10071731 153.38098311 C37.67255935 153.37217813 34.24440537 153.37396048 30.8162384 153.37434387 C25.06562003 153.37340888 19.31505459 153.36474379 13.56445312 153.35107422 C6.90921012 153.33531308 0.25402491 153.33007748 -6.4012354 153.33080977 C-12.80314488 153.33141911 -19.2050355 153.32632473 -25.60693932 153.31801796 C-28.33300613 153.31448126 -31.05906627 153.31265418 -33.78513527 153.31212425 C-37.58253554 153.30996884 -41.37986162 153.30124316 -45.17724609 153.29052734 C-46.88292503 153.29120712 -46.88292503 153.29120712 -48.62306213 153.29190063 C-49.65070679 153.28763565 -50.67835144 153.28337067 -51.73713684 153.27897644 C-53.08463123 153.27646267 -53.08463123 153.27646267 -54.45934772 153.27389812 C-56.48657227 153.14526367 -56.48657227 153.14526367 -57.48657227 152.14526367 C-57.59313526 150.65667496 -57.630631 149.16308096 -57.64047241 147.67071533 C-57.64907288 146.70367172 -57.65767334 145.73662811 -57.66653442 144.74028015 C-57.67079437 143.6702626 -57.67505432 142.60024506 -57.67944336 141.49780273 C-57.68762085 140.37737076 -57.69579834 139.25693878 -57.70422363 138.10255432 C-57.72915414 134.3720046 -57.74562029 130.64149335 -57.76000977 126.91088867 C-57.76533344 125.63722191 -57.77065712 124.36355515 -57.77614212 123.05129242 C-57.79739706 117.69152487 -57.81652206 112.33177079 -57.82776451 106.97197342 C-57.84394159 99.31060554 -57.87693888 91.64974999 -57.93416536 83.98857522 C-57.9777821 77.94070377 -57.99353541 71.89306236 -57.999897 65.84502411 C-58.00659074 63.28234987 -58.02176341 60.71968249 -58.04578781 58.15711212 C-58.27356467 32.37321478 -58.27356467 32.37321478 -52.48657227 22.14526367 C-51.82657227 22.14526367 -51.16657227 22.14526367 -50.48657227 22.14526367 C-50.17719727 21.36151367 -49.86782227 20.57776367 -49.54907227 19.77026367 C-48.48657227 17.14526367 -48.48657227 17.14526367 -47.48657227 15.14526367 C-46.82657227 15.14526367 -46.16657227 15.14526367 -45.48657227 15.14526367 C-45.48657227 14.48526367 -45.48657227 13.82526367 -45.48657227 13.14526367 C-31.38877922 0.76279145 -17.98065884 -0.00755976 0 0 Z M52.29467773 94.17651367 C49.72087062 97.02124785 50.11429302 99.06711205 50.26342773 102.83276367 C50.29952148 104.01225586 50.33561523 105.19174805 50.37280273 106.40698242 C50.41920898 107.31061523 50.46561523 108.21424805 50.51342773 109.14526367 C49.03229492 109.11045898 49.03229492 109.11045898 47.52124023 109.07495117 C45.59924805 109.04788086 45.59924805 109.04788086 43.63842773 109.02026367 C42.36225586 108.99706055 41.08608398 108.97385742 39.77124023 108.94995117 C36.42749436 108.78884843 36.42749436 108.78884843 34.51342773 111.14526367 C34.22740611 115.290358 34.22740611 115.290358 35.51342773 119.14526367 C38.78898381 119.615274 38.78898381 119.615274 42.57592773 119.77026367 C43.8662793 119.8450293 45.15663086 119.91979492 46.48608398 119.99682617 C47.98461914 120.07030273 47.98461914 120.07030273 49.51342773 120.14526367 C49.55081055 121.04889648 49.58819336 121.9525293 49.62670898 122.88354492 C49.72532227 124.6527832 49.72532227 124.6527832 49.82592773 126.45776367 C49.88393555 127.62952148 49.94194336 128.8012793 50.00170898 130.00854492 C50.26825061 133.09686091 50.26825061 133.09686091 51.86499023 135.03979492 C54.45091047 136.7739547 56.49701743 136.53033733 59.51342773 136.14526367 C61.86113416 132.62370403 61.89012388 130.63754524 62.13842773 126.45776367 C62.26217773 124.37463867 62.38592773 122.29151367 62.51342773 120.14526367 C67.13342773 119.81526367 71.75342773 119.48526367 76.51342773 119.14526367 C77.71330819 113.86326774 77.71330819 113.86326774 75.51342773 109.14526367 C72.15839297 108.7796825 72.15839297 108.7796825 68.38842773 108.95776367 C66.11967773 109.01963867 63.85092773 109.08151367 61.51342773 109.14526367 C61.51342773 104.52526367 61.51342773 99.90526367 61.51342773 95.14526367 C56.90959353 93.2396665 56.90959353 93.2396665 52.29467773 94.17651367 Z " fill="#3249B6" transform="translate(116.486572265625,54.854736328125)"/>
<path d="M0 0 C1.06204147 0.00165665 2.12408295 0.00331329 3.2183075 0.00502014 C4.0180751 0.00715012 4.81784271 0.00928009 5.6418457 0.01147461 C5.712117 15.07636349 5.76492227 30.14123961 5.79728222 45.20625782 C5.81271097 52.20217704 5.83372347 59.19799406 5.86816406 66.19384766 C5.90140899 72.95008494 5.9187187 79.70621617 5.92647743 86.46253014 C5.932004 89.03521072 5.94279594 91.60788575 5.95903587 94.18052101 C5.98093488 97.79462671 5.98380736 101.40829916 5.98242188 105.02246094 C5.9932077 106.07694931 6.00399353 107.13143768 6.0151062 108.21788025 C5.95796257 122.06840714 1.65470779 131.81134842 -7.7956543 141.82397461 C-18.47845743 151.93575931 -29.63691256 153.4632706 -43.86108398 153.43139648 C-45.41765956 153.43874704 -46.97422969 153.44733612 -48.53079224 153.45706177 C-52.73765829 153.47918595 -56.94432793 153.48221293 -61.15124416 153.48031425 C-64.67468331 153.4801941 -68.19808153 153.48877676 -71.72150922 153.49709177 C-80.04182524 153.51629418 -88.36204095 153.51922166 -96.68237305 153.51245117 C-105.23768405 153.50581692 -113.7925632 153.52865711 -122.34778666 153.5657649 C-129.71713754 153.59655766 -137.08635021 153.60781147 -144.45576406 153.60392809 C-148.84644296 153.60186998 -153.23678585 153.60719321 -157.62740326 153.63182068 C-161.76122094 153.65424359 -165.89434175 153.65208263 -170.02816391 153.63189316 C-171.53529538 153.62851005 -173.04247521 153.63345417 -174.54954147 153.64787674 C-188.2579413 153.76989284 -199.36326942 150.96696569 -209.35595703 141.31469727 C-216.90412337 133.76527479 -221.29559272 123.63709038 -222.3581543 113.01147461 C-220.66716082 111.32048114 -218.54175383 111.87953069 -216.22476196 111.8734436 C-215.11178741 111.86799026 -213.99881287 111.86253693 -212.85211182 111.85691833 C-211.00392853 111.85535484 -211.00392853 111.85535484 -209.1184082 111.85375977 C-207.13888044 111.84596002 -205.15935269 111.83815624 -203.17982554 111.83020186 C-201.04401452 111.82247208 -198.90820784 111.81709812 -196.77238846 111.81224442 C-192.31659241 111.8015714 -187.86087253 111.7813243 -183.40512085 111.75912476 C-170.73146083 111.69719044 -158.05780336 111.64331522 -145.3840332 111.61010742 C-138.39024046 111.59170159 -131.39657354 111.56268343 -124.4028734 111.52210271 C-120.70417489 111.50111646 -117.00563447 111.48558759 -113.30687332 111.48329544 C-109.16835609 111.48072819 -105.03027456 111.45516327 -100.8918457 111.42797852 C-99.67996582 111.43098465 -98.46808594 111.43399078 -97.21948242 111.43708801 C-84.30940413 111.31159314 -74.51052753 107.91236652 -63.9206543 100.69897461 C-61.3581543 99.01147461 -61.3581543 99.01147461 -59.3581543 99.01147461 C-59.3581543 98.35147461 -59.3581543 97.69147461 -59.3581543 97.01147461 C-58.24979395 96.02995659 -57.09369826 95.10219559 -55.9206543 94.19897461 C-44.41007016 84.34150628 -37.59449164 69.86164963 -35.3581543 55.01147461 C-35.08542197 50.69491367 -35.07828279 46.39787553 -35.1081543 42.07397461 C-35.10041992 40.95829102 -35.09268555 39.84260742 -35.0847168 38.69311523 C-35.09886493 32.65539843 -35.50399995 27.06904259 -36.91723633 21.19140625 C-37.61049097 17.76390308 -37.48723563 14.49667056 -37.3581543 11.01147461 C-38.3481543 10.51647461 -38.3481543 10.51647461 -39.3581543 10.01147461 C-36.18666223 5.31766635 -33.48938608 3.94778849 -28.3581543 2.01147461 C-28.0281543 1.68147461 -27.6981543 1.35147461 -27.3581543 1.01147461 C-25.93977557 0.85412643 -24.51420012 0.76054101 -23.08862305 0.69506836 C-21.75347656 0.63222656 -21.75347656 0.63222656 -20.39135742 0.56811523 C-19.45227539 0.52879883 -18.51319336 0.48948242 -17.5456543 0.44897461 C-16.64911133 0.40579102 -15.75256836 0.36260742 -14.82885742 0.31811523 C-9.88299208 0.0960272 -4.95105091 -0.01006964 0 0 Z " fill="#2643A8" transform="translate(281.358154296875,131.988525390625)"/>
<path d="M0 0 C3.57267709 0.02531366 7.14537335 0.0273789 10.7181263 0.03210163 C17.45737902 0.04444469 24.19636658 0.0771463 30.93550348 0.11749959 C38.61888291 0.16249042 46.30227622 0.18427238 53.98575497 0.20428133 C69.76694151 0.24588874 85.54784787 0.31689136 101.32884407 0.40557575 C101.32884407 5.02557575 101.32884407 9.64557575 101.32884407 14.40557575 C99.77917442 14.40922138 98.22950478 14.41286701 96.63287544 14.41662312 C81.99422115 14.45364179 67.35580951 14.51125535 52.71732235 14.58947849 C45.19239986 14.62916759 37.66758042 14.6616112 30.14256477 14.67657185 C23.5783068 14.68964124 17.01427653 14.71673928 10.45014685 14.76018882 C6.97937153 14.78268591 3.50887578 14.79849359 0.03802109 14.7974596 C-3.85119085 14.79656531 -7.73983841 14.82701361 -11.6289196 14.85967731 C-12.76037407 14.85464695 -13.89182854 14.84961658 -15.0575695 14.84443378 C-26.15987081 14.98771438 -35.93885648 17.41973619 -44.67115593 24.40557575 C-45.33115593 24.40557575 -45.99115593 24.40557575 -46.67115593 24.40557575 C-47.00115593 25.39557575 -47.33115593 26.38557575 -47.67115593 27.40557575 C-49.3378226 29.07224242 -51.00448926 30.73890909 -52.67115593 32.40557575 C-60.25243487 42.51394768 -61.84239665 51.93432211 -61.73365593 64.28057575 C-61.72914421 65.255107 -61.72463249 66.22963825 -61.71998405 67.23370075 C-61.70826499 69.62439009 -61.69185812 72.01495015 -61.67115593 74.40557575 C-65.28287297 70.79385871 -64.82911411 66.04770078 -64.85865593 61.15557575 C-64.68487494 47.07931537 -59.7736688 35.89879824 -50.05787468 25.5891695 C-47.08414235 22.86852078 -43.94622116 20.79480436 -40.42115593 18.8547945 C-38.09089395 16.9250463 -37.98612864 15.34368052 -37.67115593 12.40557575 C-38.66115593 12.40557575 -39.65115593 12.40557575 -40.67115593 12.40557575 C-40.67115593 11.41557575 -40.67115593 10.42557575 -40.67115593 9.40557575 C-41.33115593 9.40557575 -41.99115593 9.40557575 -42.67115593 9.40557575 C-42.34115593 8.41557575 -42.01115593 7.42557575 -41.67115593 6.40557575 C-42.33115593 5.74557575 -42.99115593 5.08557575 -43.67115593 4.40557575 C-29.36784097 -0.6164217 -14.97782742 -0.12434541 0 0 Z " fill="#4A4DC3" transform="translate(185.67115592956543,106.5944242477417)"/>
<path d="M0 0 C0 0.66 0 1.32 0 2 C0.66 2 1.32 2 2 2 C2.33 3.32 2.66 4.64 3 6 C-1.8 9.86666667 -1.8 9.86666667 -4.25 11.5 C-6.18717644 12.83362094 -6.18717644 12.83362094 -6.3125 14.9375 C-7.26595672 17.79787017 -8.98497701 18.67878254 -11.60496521 19.99371338 C-26.1151897 26.09026147 -40.66610749 25.5360741 -56.16590381 25.40557575 C-59.6852013 25.38028184 -63.20451784 25.37819837 -66.72389221 25.37347412 C-73.36401527 25.36112542 -80.00386957 25.32841588 -86.64387518 25.28807616 C-94.21356924 25.24310328 -101.78327729 25.22130781 -109.35307205 25.20129442 C-124.90220705 25.15967417 -140.45105802 25.08866125 -156 25 C-156 21.04 -156 17.08 -156 13 C-152.36898165 12.27379633 -149.72616123 11.87786157 -146.13813782 11.89320374 C-144.71068489 11.89547722 -144.71068489 11.89547722 -143.25439453 11.89779663 C-141.70594849 11.90790268 -141.70594849 11.90790268 -140.1262207 11.91821289 C-139.02964645 11.92127945 -137.9330722 11.92434601 -136.80326843 11.92750549 C-134.42372724 11.93465432 -132.04419195 11.94404108 -129.66466713 11.95540047 C-125.89356215 11.97280495 -122.12249965 11.9830952 -118.35136414 11.99131775 C-107.62946392 12.01575439 -96.90762467 12.051208 -86.18579102 12.09594727 C-79.62481433 12.12323818 -73.06385264 12.1397984 -66.5028286 12.15081596 C-64.00747642 12.15700723 -61.51213057 12.16698921 -59.01680946 12.18089485 C-55.51808134 12.20021272 -52.01952642 12.20702161 -48.52075195 12.21118164 C-46.98748764 12.22432404 -46.98748764 12.22432404 -45.42324829 12.23773193 C-39.81217505 12.2301545 -34.67578816 11.72948762 -29.20971966 10.43617916 C-25.78376435 9.75992582 -22.48474405 9.93991821 -19 10 C-16.65518954 9.81627212 -16.65518954 9.81627212 -15 9 C-14.67 8.01 -14.34 7.02 -14 6 C-12.68 6 -11.36 6 -10 6 C-9.6596875 5.071875 -9.6596875 5.071875 -9.3125 4.125 C-7.08536213 0.51915773 -4.06865477 0 0 0 Z " fill="#173D95" transform="translate(215,207)"/>
<path d="M0 0 C0.99 0.33 1.98 0.66 3 1 C3 29.38 3 57.76 3 87 C3.99 87.33 4.98 87.66 6 88 C4.515 88.495 4.515 88.495 3 89 C3 97.58 3 106.16 3 115 C3.99 115 4.98 115 6 115 C4.125 119.75 4.125 119.75 3 122 C1.35 122 -0.3 122 -2 122 C-2.04675364 106.97911967 -2.08200533 91.958245 -2.10362434 76.93730736 C-2.11392994 69.96257467 -2.12797656 62.98788723 -2.15087891 56.01318359 C-2.17296808 49.28290814 -2.18456731 42.55268944 -2.18975449 35.82237625 C-2.19345139 33.25394577 -2.20067043 30.68551787 -2.21146011 28.11710739 C-2.22596614 24.52121152 -2.22797828 20.92551025 -2.22705078 17.32958984 C-2.23424133 16.26647583 -2.24143188 15.20336182 -2.24884033 14.10803223 C-2.2345845 9.00428698 -2.05339546 4.77392354 0 0 Z " fill="#28539E" transform="translate(61,84)"/>
<path d="M0 0 C0.99 0.66 1.98 1.32 3 2 C3 2.66 3 3.32 3 4 C3.66 4 4.32 4 5 4 C5.98163422 5.93625098 6.96022454 7.87404539 7.9375 9.8125 C8.48277344 10.89144531 9.02804687 11.97039062 9.58984375 13.08203125 C11.40868361 16.8456694 12.1224049 19.55406216 12.0625 23.6875 C12.05347656 24.49574219 12.04445313 25.30398437 12.03515625 26.13671875 C12.01775391 27.05904297 12.01775391 27.05904297 12 28 C11.01437985 28.00358253 11.01437985 28.00358253 10.00884819 28.00723743 C-6.03565188 28.0665698 -22.07998132 28.142235 -38.12431526 28.23571491 C-45.88348144 28.28053536 -53.64260313 28.31998105 -61.40185547 28.34643555 C-68.1708145 28.36952773 -74.9396311 28.40304906 -81.7084769 28.44870156 C-85.28710859 28.47248385 -88.86560054 28.49131012 -92.44430923 28.49761391 C-96.4554244 28.50487594 -100.46605804 28.53543927 -104.47705078 28.56762695 C-105.64231293 28.56619186 -106.80757507 28.56475677 -108.00814819 28.5632782 C-118.97006925 28.68675676 -129.7959775 30.26020531 -139.5625 35.4375 C-140.67753906 36.01371094 -141.79257813 36.58992188 -142.94140625 37.18359375 C-146.04685623 38.93227868 -146.04685623 38.93227868 -148.77734375 41.22265625 C-151 43 -151 43 -153 43 C-153 43.66 -153 44.32 -153 45 C-154.375 46.625 -154.375 46.625 -156 48 C-156.66 48 -157.32 48 -158 48 C-158 48.66 -158 49.32 -158 50 C-158.66 50 -159.32 50 -160 50 C-160.25910156 50.55042969 -160.51820313 51.10085937 -160.78515625 51.66796875 C-162.67524846 55.29621649 -164.99312629 58.63970092 -167.24609375 62.05078125 C-175.05727112 75.18538908 -175.63778721 91.1118155 -177 106 C-177.33 106 -177.66 106 -178 106 C-178.75341492 83.45336105 -175.03115704 64.76287226 -159.6484375 47.3359375 C-147.63065055 34.70772328 -131.67381052 26.23835212 -114.03492737 25.61473083 C-111.92384533 25.59474263 -109.8125734 25.59034345 -107.70141602 25.59936523 C-106.53726669 25.59238617 -105.37311737 25.5854071 -104.1736908 25.57821655 C-100.3670202 25.5583939 -96.56062359 25.55874058 -92.75390625 25.55859375 C-90.09258413 25.54681115 -87.43130573 25.53368193 -84.77000427 25.51856995 C-77.08109761 25.47783801 -69.39221425 25.45903479 -61.70322418 25.44239807 C-51.89087611 25.41994699 -42.07859371 25.38645847 -32.26635307 25.33519894 C-27.69573321 25.31213744 -23.12525132 25.30551098 -18.55458069 25.30210876 C-16.16732571 25.29233534 -13.78007267 25.28207254 -11.39282227 25.27124023 C-10.30756256 25.27379318 -9.22230286 25.27634613 -8.10415649 25.27897644 C-7.10492661 25.27214844 -6.10569672 25.26532043 -5.07618713 25.25828552 C-4.21146066 25.25665122 -3.34673418 25.25501692 -2.45580387 25.25333309 C1.47064245 24.8482931 4.20541443 23.79458557 7 21 C7.48953709 16.71655048 6.27546238 13.06553633 5 9 C4.34 9 3.68 9 3 9 C3 8.01 3 7.02 3 6 C2.34 6 1.68 6 1 6 C0.67 4.02 0.34 2.04 0 0 Z " fill="#E9EEF4" transform="translate(274,68)"/>
<path d="M0 0 C6.27 0.33 12.54 0.66 19 1 C19.33 2.32 19.66 3.64 20 5 C19.34 5.99 18.68 6.98 18 8 C18 7.01 18 6.02 18 5 C11.07 4.505 11.07 4.505 4 4 C4.763125 5.19625 5.52625 6.3925 6.3125 7.625 C11.98344977 17.8230432 13.58394383 30.31989692 10.82421875 41.6328125 C7.43888867 51.35560885 1.26222932 58.00804221 -7.62109375 62.88671875 C-14.52450705 66.11738015 -20.45474078 66.27494722 -27.97216797 66.22705078 C-29.17273331 66.22734283 -30.37329865 66.22763489 -31.61024475 66.22793579 C-34.8887794 66.2267842 -38.16714158 66.21677885 -41.44564199 66.20278788 C-44.87693114 66.19025447 -48.30822396 66.18910796 -51.73953247 66.18673706 C-58.23111193 66.18052994 -64.72262372 66.16412957 -71.21417344 66.14403808 C-78.60714907 66.12165512 -86.000128 66.11067963 -93.39312911 66.10064721 C-108.59545705 66.07976263 -123.79772175 66.04460165 -139 66 C-139.33 65.34 -139.66 64.68 -140 64 C-139.04391956 64.00194823 -139.04391956 64.00194823 -138.06852436 64.00393581 C-122.50829155 64.03322819 -106.94863095 64.02362205 -91.38847828 63.97153378 C-83.86343352 63.94726646 -76.33878987 63.93582264 -68.8137207 63.95532227 C-62.24936977 63.97229903 -55.68558035 63.96444604 -49.12130278 63.92765242 C-45.65027626 63.90904079 -42.1801977 63.90226836 -38.70917702 63.92530632 C-18.50483681 64.71850826 -18.50483681 64.71850826 -1 56 C1.82873326 52.8396448 4.0164648 49.74667761 6 46 C6.35707031 45.36449219 6.71414062 44.72898438 7.08203125 44.07421875 C11.48068446 34.69444227 9.21842517 22.70561013 7 13 C6.01 12.67 5.02 12.34 4 12 C3.67 11.01 3.34 10.02 3 9 C2.01 9 1.02 9 0 9 C0 8.34 0 7.68 0 7 C-0.99 6.505 -0.99 6.505 -2 6 C-1.34 4.02 -0.68 2.04 0 0 Z " fill="#CED9E5" transform="translate(199,142)"/>
<path d="M0 0 C0.66 0 1.32 0 2 0 C2 4.62 2 9.24 2 14 C0.45033035 14.00364563 -1.09933929 14.00729126 -2.69596863 14.01104736 C-17.33462292 14.04806603 -31.97303456 14.10567959 -46.61152172 14.18390274 C-54.13644421 14.22359184 -61.66126365 14.25603545 -69.1862793 14.27099609 C-75.75053727 14.28406549 -82.31456754 14.31116353 -88.87869722 14.35461307 C-92.34947254 14.37711016 -95.81996829 14.39291784 -99.29082298 14.39188385 C-103.18003492 14.39098955 -107.06868248 14.42143786 -110.95776367 14.45410156 C-112.08921814 14.4490712 -113.22067261 14.44404083 -114.38641357 14.43885803 C-125.48871488 14.58213862 -135.26770055 17.01416044 -144 24 C-144.66 24 -145.32 24 -146 24 C-146.33 24.99 -146.66 25.98 -147 27 C-148.66666667 28.66666667 -150.33333333 30.33333333 -152 32 C-159.58127894 42.10837193 -161.17124072 51.52874635 -161.0625 63.875 C-161.05798828 64.84953125 -161.05347656 65.8240625 -161.04882812 66.828125 C-161.03710906 69.21881434 -161.02070219 71.6093744 -161 74 C-164.61171704 70.38828296 -164.15795818 65.64212503 -164.1875 60.75 C-164.01424753 46.71654973 -159.14860387 35.38405144 -149.33984375 25.18359375 C-138.8154806 15.36202614 -126.30415826 11.20401086 -112.04956055 11.43237305 C-110.21791855 11.43127785 -110.21791855 11.43127785 -108.34927368 11.43016052 C-105.04599055 11.43301822 -101.74380917 11.4578447 -98.44074225 11.49303031 C-94.97216696 11.52458899 -91.50356305 11.52724751 -88.03486633 11.53315735 C-81.48668352 11.54861018 -74.93892518 11.58952039 -68.39092809 11.6399048 C-60.92770919 11.69606749 -53.4644685 11.72335193 -46.00109041 11.74838197 C-30.66714223 11.80044576 -15.33364291 11.88924226 0 12 C0 8.04 0 4.08 0 0 Z " fill="#CED2E9" transform="translate(285,107)"/>
<path d="M0 0 C2 3 2 3 3 5 C5.52733235 5.65555119 5.52733235 5.65555119 8 6 C7.67 6.99 7.34 7.98 7 9 C7.66 9 8.32 9 9 9 C8.3732611 20.49021316 2.03424662 28.14368389 -6 36 C-8.27100394 37.8516778 -10.52545209 39.42050133 -13 41 C-13.33 39.68 -13.66 38.36 -14 37 C-13.3503125 36.61328125 -12.700625 36.2265625 -12.03125 35.828125 C-10.77828125 35.04695313 -10.77828125 35.04695313 -9.5 34.25 C-8.6646875 33.73953125 -7.829375 33.2290625 -6.96875 32.703125 C-6.3190625 32.14109375 -5.669375 31.5790625 -5 31 C-5 29.68 -5 28.36 -5 27 C-8.46103566 25.88025317 -9.80443583 25.92102216 -13.25 27.3125 C-16.0771545 28.71394179 -16.0771545 28.71394179 -17 31 C-18.33333333 31.33333333 -19.66666667 31.66666667 -21 32 C-21.33 32.66 -21.66 33.32 -22 34 C-24.375 35.25 -24.375 35.25 -27 36 C-27.99 35.34 -28.98 34.68 -30 34 C-28.98679688 33.51080078 -28.98679688 33.51080078 -27.953125 33.01171875 C-27.06109375 32.57472656 -26.1690625 32.13773438 -25.25 31.6875 C-24.36828125 31.25824219 -23.4865625 30.82898438 -22.578125 30.38671875 C-19.98339185 29.07633928 -19.98339185 29.07633928 -17.796875 27.33203125 C-16 26 -16 26 -14 26 C-13.72671875 25.40960938 -13.4534375 24.81921875 -13.171875 24.2109375 C-12.03807816 22.0718408 -10.80348807 20.4708111 -9.25 18.625 C-4.93578738 13.03565065 -2.57945469 6.51266575 0 0 Z " fill="#2B43B4" transform="translate(222,182)"/>
<path d="M0 0 C0.33 0 0.66 0 1 0 C1.0702713 15.06488888 1.12307657 30.129765 1.15543652 45.19478321 C1.17086527 52.19070243 1.19187777 59.18651945 1.22631836 66.18237305 C1.25956329 72.93861033 1.276873 79.69474156 1.28463173 86.45105553 C1.2901583 89.02373611 1.30095023 91.59641114 1.31719017 94.1690464 C1.33908918 97.7831521 1.34196165 101.39682455 1.34057617 105.01098633 C1.351362 106.0654747 1.36214783 107.11996307 1.3732605 108.20640564 C1.31611687 122.05693253 -2.98713791 131.79987381 -12.4375 141.8125 C-23.18433358 151.98489258 -34.37374562 153.44993853 -48.67749023 153.37231445 C-50.25190979 153.37474585 -51.8263278 153.37846854 -53.40074158 153.38337708 C-57.65235688 153.39273668 -61.90374002 153.3834053 -66.1553371 153.37004495 C-70.60934129 153.35869077 -75.06333473 153.36284066 -79.51734924 153.36479187 C-86.98776018 153.36567295 -94.45808004 153.35462807 -101.9284668 153.33618164 C-110.57133863 153.3149626 -119.21407763 153.31151672 -127.85697025 153.3177436 C-136.17518842 153.32342997 -144.49335972 153.3178037 -152.81157112 153.30657005 C-156.35181607 153.30191994 -159.89203241 153.30105192 -163.43227959 153.3031559 C-167.59297344 153.3050342 -171.75353127 153.2969705 -175.91419411 153.2810955 C-177.44367281 153.2768408 -178.97316529 153.27601002 -180.5026474 153.27878571 C-182.58386076 153.28199079 -184.66466326 153.27296909 -186.74583435 153.26069641 C-187.91219642 153.25864354 -189.07855848 153.25659067 -190.28026485 153.25447559 C-193 153 -193 153 -195 151 C-193.79239234 151.00414807 -193.79239234 151.00414807 -192.56038857 151.00837994 C-172.94567969 151.07471445 -153.33099328 151.12431689 -133.71619606 151.15543652 C-124.23051544 151.17088682 -114.74490982 151.19194116 -105.25927734 151.22631836 C-96.98888166 151.25627702 -88.71854031 151.27558835 -80.44809186 151.28226548 C-76.07141158 151.2861668 -71.69488672 151.29529699 -67.31825638 151.31719017 C-63.19294839 151.33765762 -59.06785883 151.34381321 -54.94250488 151.33932304 C-53.43411443 151.34014368 -51.92571615 151.34604801 -50.41736984 151.35761642 C-39.94347193 151.4339598 -30.62661056 150.78406101 -21.625 144.9375 C-17.10927638 142.0471427 -17.10927638 142.0471427 -14.8359375 141.06640625 C-12.49583213 139.70715355 -12.07223501 138.45082289 -11 136 C-10.05329569 134.65838474 -9.09406198 133.32555628 -8.125 132 C-2.13971738 123.02822048 -0.40233173 113.70381959 -0.45410156 103.08105469 C-0.43859505 101.39593529 -0.43859505 101.39593529 -0.42277527 99.67677307 C-0.3935634 96.00832363 -0.39185264 92.34043112 -0.390625 88.671875 C-0.37562882 86.11068686 -0.35889868 83.54950835 -0.34051514 80.98834229 C-0.30142618 74.96445501 -0.27966618 68.94075237 -0.26654124 62.91677308 C-0.25059674 56.05074974 -0.21215046 49.18490768 -0.17194796 42.31899023 C-0.08984765 28.21272144 -0.03556971 14.10645748 0 0 Z " fill="#E5E8F1" transform="translate(286,132)"/>
<path d="M0 0 C14.8119258 -0.04669788 29.62384187 -0.08197798 44.4358263 -0.10362434 C51.3131182 -0.11394178 58.19036439 -0.128011 65.06762695 -0.15087891 C71.70062345 -0.1729241 78.33358482 -0.1845585 84.96661949 -0.18975449 C87.50124549 -0.19345888 90.03586879 -0.2006923 92.57047462 -0.21146011 C96.11190099 -0.22591113 99.65312912 -0.22798061 103.19458008 -0.22705078 C104.24977844 -0.23424133 105.30497681 -0.24143188 106.39215088 -0.24884033 C107.35548843 -0.246091 108.31882599 -0.24334167 109.31135559 -0.24050903 C110.14926541 -0.24235262 110.98717524 -0.24419621 111.85047626 -0.24609566 C114 0 114 0 117 2 C113.77672596 3.61163702 110.2345 3.42349958 106.6875 3.625 C105.92759766 3.6765625 105.16769531 3.728125 104.38476562 3.78125 C103.64291016 3.82507813 102.90105469 3.86890625 102.13671875 3.9140625 C101.12677856 3.9752124 101.12677856 3.9752124 100.09643555 4.03759766 C98 4 98 4 95.78013611 3.50375366 C92.60375541 2.92820148 89.65000535 2.88767116 86.42138672 2.90234375 C84.45442337 2.90729858 84.45442337 2.90729858 82.44772339 2.91235352 C81.40445704 2.91853195 81.40445704 2.91853195 80.34011459 2.92483521 C78.15455909 2.93764731 75.96906456 2.94412639 73.78347778 2.94897461 C69.14729105 2.96037554 64.51115486 2.9796292 59.875 3 C54.49465418 3.02360166 49.11433695 3.04398311 43.73395157 3.05593872 C41.58072315 3.06242161 39.42758285 3.0749268 37.27438354 3.08764648 C35.96937897 3.09094971 34.66437439 3.09425293 33.31982422 3.09765625 C32.16908417 3.10289307 31.01834412 3.10812988 29.83273315 3.11352539 C27 3 27 3 24 2 C23.67 2.66 23.34 3.32 23 4 C22.67 3.67 22.34 3.34 22 3 C19.89778307 2.90031328 17.79207396 2.87031797 15.6875 2.875 C14.53636719 2.87242187 13.38523437 2.86984375 12.19921875 2.8671875 C9.58748263 2.97561122 7.47692016 3.22940262 5 4 C5 5.98 5 7.96 5 10 C4.01 9.67 3.02 9.34 2 9 C1.26953125 6.93359375 1.26953125 6.93359375 0.8125 4.4375 C0.65394531 3.61121094 0.49539062 2.78492188 0.33203125 1.93359375 C0.16767578 0.97646484 0.16767578 0.97646484 0 0 Z " fill="#08236F" transform="translate(59,245)"/>
<path d="M0 0 C2.34676281 3.52014422 2.66929891 6.53306671 3.125 10.625 C3.2084668 11.35138672 3.29193359 12.07777344 3.37792969 12.82617188 C3.93695864 17.92360326 4.37547792 22.87391009 4 28 C3.92007813 29.20140625 3.84015625 30.4028125 3.7578125 31.640625 C2.59872919 45.30856185 -2.10698769 57.12926925 -12 67 C-12.66 67 -13.32 67 -14 67 C-14.33 67.99 -14.66 68.98 -15 70 C-15.66 70 -16.32 70 -17 70 C-17 70.66 -17 71.32 -17 72 C-29.99788931 81.12711347 -41.88876071 83.12809038 -57.36108398 83.20532227 C-59.2060421 83.22017166 -59.2060421 83.22017166 -61.08827209 83.23532104 C-64.44311718 83.26140351 -67.7979398 83.28330853 -71.15282321 83.30332303 C-74.66555183 83.32527805 -78.17823852 83.35261992 -81.69093323 83.37937927 C-88.33471257 83.42917808 -94.97851534 83.47416411 -101.62234026 83.51740164 C-109.18949633 83.56688392 -116.7566103 83.62176109 -124.32372558 83.67708123 C-139.88244477 83.79070443 -155.44120275 83.89758583 -171 84 C-171.33 83.34 -171.66 82.68 -172 82 C-171.04668494 81.99780016 -171.04668494 81.99780016 -170.07411098 81.99555588 C-154.54662729 81.95836117 -139.01940203 81.89918048 -123.49210262 81.81609726 C-115.98293173 81.77643705 -108.47386366 81.74397895 -100.96459961 81.72900391 C-94.41277444 81.71591934 -87.86117675 81.68878352 -81.30947977 81.64538693 C-77.84646568 81.62292338 -74.38373054 81.6070801 -70.92063713 81.60811615 C-48.26015219 81.60750872 -30.51240643 80.66652584 -13.3203125 64.390625 C-0.34435928 51.02146108 1.51321072 36.09676646 1.34350586 18.17382812 C1.2098336 12.05937003 0.77731948 6.06564053 0 0 Z " fill="#E3E8EE" transform="translate(232,150)"/>
<path d="M0 0 C0.98057373 0.04842041 1.96114746 0.09684082 2.97143555 0.14672852 C4.05336182 0.20272217 5.13528809 0.25871582 6.25 0.31640625 C19.48099075 0.915641 32.69467816 0.96715648 45.9375 0.94140625 C47.44485718 0.9386116 47.44485718 0.9386116 48.98266602 0.9357605 C54.73847937 0.92359188 60.49423005 0.90420377 66.25 0.87890625 C65.92 1.86890625 65.59 2.85890625 65.25 3.87890625 C61.86790846 5.27380473 58.2526602 4.999212 54.64550781 4.99243164 C53.66439781 4.99265068 53.66439781 4.99265068 52.66346741 4.99287415 C50.50998574 4.99217966 48.35659148 4.98440908 46.203125 4.9765625 C44.70668586 4.97469667 43.21024612 4.97327354 41.71380615 4.97227478 C37.78141585 4.9684626 33.84906268 4.95864342 29.91668701 4.9475708 C25.90149437 4.93732874 21.8862957 4.93277117 17.87109375 4.92773438 C9.99737883 4.91701997 2.12369404 4.89995916 -5.75 4.87890625 C-5.75 3.88890625 -5.75 2.89890625 -5.75 1.87890625 C-6.74 2.20890625 -7.73 2.53890625 -8.75 2.87890625 C-8.75 2.21890625 -8.75 1.55890625 -8.75 0.87890625 C-5.70220111 -0.02940423 -3.16803634 -0.17986231 0 0 Z " fill="#133B9D" transform="translate(191.75,278.12109375)"/>
<path d="M0 0 C0.33 0 0.66 0 1 0 C1.33 10.56 1.66 21.12 2 32 C2.33 32 2.66 32 3 32 C3.33 39.59 3.66 47.18 4 55 C4.99 55.33 5.98 55.66 7 56 C5.515 56.495 5.515 56.495 4 57 C4 65.58 4 74.16 4 83 C4.99 83 5.98 83 7 83 C5.125 87.75 5.125 87.75 4 90 C2.68 90 1.36 90 0 90 C0 60.3 0 30.6 0 0 Z " fill="#0F3487" transform="translate(60,116)"/>
<path d="M0 0 C0.99 0.66 1.98 1.32 3 2 C3 2.66 3 3.32 3 4 C3.66 4 4.32 4 5 4 C10.60797233 11.82219019 10.25169957 16.52379404 11 27 C-32.23 27 -75.46 27 -120 27 C-120 26.67 -120 26.34 -120 26 C-119.38616109 25.99668985 -118.77232218 25.99337971 -118.13988209 25.98996925 C-103.20013543 25.90872998 -88.26049219 25.81663448 -73.32088947 25.71247292 C-66.09619067 25.66236252 -58.87150311 25.61591944 -51.64672852 25.578125 C-45.34922316 25.54517199 -39.05180555 25.50532253 -32.75439709 25.45720994 C-29.42031728 25.43197773 -26.08630702 25.41121548 -22.75216103 25.39665604 C-19.02906295 25.3798129 -15.30624687 25.35078168 -11.58325195 25.31884766 C-10.47913971 25.31668747 -9.37502747 25.31452728 -8.23745728 25.31230164 C-7.22088547 25.30113815 -6.20431366 25.28997467 -5.15693665 25.2784729 C-4.27662435 25.27294214 -3.39631205 25.26741138 -2.48932362 25.26171303 C1.45116431 24.84743301 4.19347118 23.80652882 7 21 C7.48953709 16.71655048 6.27546238 13.06553633 5 9 C4.34 9 3.68 9 3 9 C3 8.01 3 7.02 3 6 C2.34 6 1.68 6 1 6 C0.505 3.03 0.505 3.03 0 0 Z " fill="#ABA8D3" transform="translate(274,68)"/>
<path d="M0 0 C19.01097215 -0.04677465 38.02193259 -0.08201561 57.0329504 -0.10362434 C65.86060958 -0.11392549 74.68823295 -0.12796359 83.51586914 -0.15087891 C91.21236606 -0.17084837 98.90883703 -0.18372488 106.60535914 -0.18817699 C110.67848172 -0.19077835 114.75153009 -0.19686841 118.82462883 -0.21146011 C122.66345291 -0.22510028 126.50217267 -0.22920971 130.34101868 -0.22621536 C131.74500662 -0.22676266 133.14899828 -0.23070163 134.55296516 -0.23841095 C143.55545308 -0.28539275 151.90582034 -0.28009906 160 4 C158.68 4.66 157.36 5.32 156 6 C155.67 5.01 155.34 4.02 155 3 C153.98679688 3.01160156 152.97359375 3.02320313 151.9296875 3.03515625 C150.57812686 3.04454209 149.2265642 3.05364143 147.875 3.0625 C146.87726563 3.07506836 146.87726563 3.07506836 145.859375 3.08789062 C141.78408288 3.10786755 138.00149508 2.7347378 134 2 C129.65185844 1.66731301 125.76057367 1.49295089 122 4 C121.505 3.01 121.505 3.01 121 2 C81.07 1.67 41.14 1.34 0 1 C0 0.67 0 0.34 0 0 Z " fill="#767BC6" transform="translate(102,55)"/>
<path d="M0 0 C6.27 0.33 12.54 0.66 19 1 C19.33 2.32 19.66 3.64 20 5 C19.01 6.485 19.01 6.485 18 8 C18 7.01 18 6.02 18 5 C11.07 4.505 11.07 4.505 4 4 C4.763125 5.19625 5.52625 6.3925 6.3125 7.625 C11.99656752 17.84663278 13.53493985 30.27466521 10.84375 41.61328125 C9.25254209 46.11433696 6.6287515 50.04033971 4 54 C3.01 53.67 2.02 53.34 1 53 C1.40992188 52.41992188 1.81984375 51.83984375 2.2421875 51.2421875 C3.05042969 50.07042969 3.05042969 50.07042969 3.875 48.875 C4.40867188 48.10929687 4.94234375 47.34359375 5.4921875 46.5546875 C11.47426312 36.41925368 9.51174249 23.98887341 7 13 C6.01 12.67 5.02 12.34 4 12 C3.67 11.01 3.34 10.02 3 9 C2.01 9 1.02 9 0 9 C0 8.34 0 7.68 0 7 C-0.66 6.67 -1.32 6.34 -2 6 C-1.34 4.02 -0.68 2.04 0 0 Z " fill="#E2E6F0" transform="translate(199,142)"/>
<path d="M0 0 C7.64080129 -0.04632731 15.28158803 -0.08187121 22.92249775 -0.10362434 C26.47043631 -0.11406444 30.01827883 -0.12822763 33.56616211 -0.15087891 C37.64437791 -0.17675331 41.72249271 -0.1864709 45.80078125 -0.1953125 C47.07585037 -0.20563507 48.35091949 -0.21595764 49.66462708 -0.22659302 C50.84562485 -0.22674408 52.02662262 -0.22689514 53.2434082 -0.22705078 C54.80560844 -0.23371262 54.80560844 -0.23371262 56.39936829 -0.24050903 C59 0 59 0 62 2 C58.77672596 3.61163702 55.2345 3.42349958 51.6875 3.625 C50.92759766 3.6765625 50.16769531 3.728125 49.38476562 3.78125 C48.64291016 3.82507813 47.90105469 3.86890625 47.13671875 3.9140625 C46.12677856 3.9752124 46.12677856 3.9752124 45.09643555 4.03759766 C43 4 43 4 40.7121582 3.50708008 C37.28065949 2.86550812 33.94251415 2.91426826 30.46875 2.97265625 C29.00390858 2.98529881 27.53906471 2.99766004 26.07421875 3.00976562 C23.78328675 3.03458692 21.49248463 3.06260937 19.20166016 3.09594727 C16.97818194 3.12623923 14.7548693 3.14394641 12.53125 3.16015625 C11.51073547 3.18034569 11.51073547 3.18034569 10.46960449 3.20094299 C6.52338864 3.22164144 3.55365621 2.73364725 0 1 C0 0.67 0 0.34 0 0 Z " fill="#0E3284" transform="translate(114,245)"/>
<path d="M0 0 C0 37.95 0 75.9 0 115 C-0.33 115 -0.66 115 -1 115 C-1.495 59.065 -1.495 59.065 -2 2 C-3.98 2.33 -5.96 2.66 -8 3 C-10.33257494 3.33859959 -12.66574212 3.6732039 -15 4 C-15.33 3.01 -15.66 2.02 -16 1 C-11 0 -11 0 0 0 Z " fill="#777BBF" transform="translate(286,132)"/>
<path d="M0 0 C4.08934581 -0.02500541 8.17866105 -0.04300222 12.26806641 -0.05493164 C13.65479306 -0.05991293 15.04151459 -0.06670039 16.42822266 -0.07543945 C24.33835992 -0.12398542 32.14502199 -0.03835551 40 1 C37.48169253 4.12270126 36.2738451 4.94523098 32.25 5.75 C31.1775 5.8325 30.105 5.915 29 6 C29 5.34 29 4.68 29 4 C28.34 4 27.68 4 27 4 C26.67 4.66 26.34 5.32 26 6 C25.67 4.68 25.34 3.36 25 2 C16.75 1.67 8.5 1.34 0 1 C0 0.67 0 0.34 0 0 Z M30 6 C30 8.66666667 30 11.33333333 30 14 C26.04 14 22.08 14 18 14 C17.67 15.32 17.34 16.64 17 18 C15.5393715 15.35261084 15 14.10551666 15 11 C18.96 11 22.92 11 27 11 C27.33 9.68 27.66 8.36 28 7 C28.66 6.67 29.32 6.34 30 6 Z " fill="#6161C8" transform="translate(214,132)"/>
<path d="M0 0 C0.99 0.495 0.99 0.495 2 1 C4.52638174 9.82420416 5.38452867 18.82221852 5.7890625 27.953125 C5.87543191 31.0428814 5.87543191 31.0428814 7 34 C7.203125 36.15625 7.203125 36.15625 7.25 38.5 C7.27578125 39.2734375 7.3015625 40.046875 7.328125 40.84375 C6.91986285 43.52661557 6.05082847 44.29181609 4 46 C3.443125 46.556875 2.88625 47.11375 2.3125 47.6875 C1.879375 48.120625 1.44625 48.55375 1 49 C1.16113281 47.94554687 1.32226562 46.89109375 1.48828125 45.8046875 C2.21935122 39.92248559 2.18411735 34.04463323 2.1875 28.125 C2.19974609 27.00480469 2.21199219 25.88460937 2.22460938 24.73046875 C2.23520644 18.67601058 1.8721705 13.10440244 0.4309082 7.21435547 C-0.04567938 4.76526235 -0.0692763 2.48901815 0 0 Z " fill="#3F43B8" transform="translate(244,146)"/>
<path d="M0 0 C1.67255859 0.07250977 1.67255859 0.07250977 3.37890625 0.14648438 C5.11720703 0.2305957 5.11720703 0.2305957 6.890625 0.31640625 C8.65212891 0.3947168 8.65212891 0.3947168 10.44921875 0.47460938 C13.34663164 0.60416849 16.24368993 0.73913072 19.140625 0.87890625 C19.140625 2.19890625 19.140625 3.51890625 19.140625 4.87890625 C10.560625 4.87890625 1.980625 4.87890625 -6.859375 4.87890625 C-6.859375 3.88890625 -6.859375 2.89890625 -6.859375 1.87890625 C-7.849375 2.20890625 -8.839375 2.53890625 -9.859375 2.87890625 C-9.859375 2.21890625 -9.859375 1.55890625 -9.859375 0.87890625 C-6.47545922 -0.17237303 -3.52734075 -0.16196973 0 0 Z " fill="#0F3692" transform="translate(192.859375,278.12109375)"/>
<path d="M0 0 C0.33 0.66 0.66 1.32 1 2 C1.99 1.67 2.98 1.34 4 1 C10.42813959 0.68047259 16.66111403 0.943519 23 2 C24.32 2 25.64 2 27 2 C27 2.99 27 3.98 27 5 C16.11 5 5.22 5 -6 5 C-6 4.01 -6 3.02 -6 2 C-4.02 1.34 -2.04 0.68 0 0 Z " fill="#383EB9" transform="translate(165,88)"/>
<path d="M0 0 C0.33 0 0.66 0 1 0 C1.15399921 10.33994675 -3.55857212 16.50660419 -10.4375 23.8125 C-16.20972762 29.31233036 -23.16504685 34.08219377 -31.3125 34.125 C-32.529375 34.08375 -33.74625 34.0425 -35 34 C-32.14383032 32.50640668 -29.27728288 31.34907722 -26.25 30.25 C-21.75798106 28.49572042 -18.29639968 26.23718334 -14.59375 23.171875 C-13 22 -13 22 -11 22 C-10.73058594 21.42636719 -10.46117187 20.85273438 -10.18359375 20.26171875 C-8.9732592 17.94890124 -7.58093108 15.93366709 -6.0625 13.8125 C-3.08121881 9.42440397 -1.3747334 5.10098445 0 0 Z " fill="#D7DCEF" transform="translate(284,250)"/>
<path d="M0 0 C0.66 0.66 1.32 1.32 2 2 C1.71125 2.886875 1.4225 3.77375 1.125 4.6875 C-1.13258487 12.60517266 -2.18256539 20.78455727 -2 29 C-2.33 29.66 -2.66 30.32 -3 31 C-2.34 31 -1.68 31 -1 31 C-1.375 33.9375 -1.375 33.9375 -2 37 C-2.99 37.495 -2.99 37.495 -4 38 C-8.33672444 29.32655111 -4.72746127 13.64530156 -2 5 C-1.3539244 3.32524374 -0.69361646 1.65563233 0 0 Z " fill="#274DA0" transform="translate(114,140)"/>
<path d="M0 0 C0.33 0 0.66 0 1 0 C1.33 10.56 1.66 21.12 2 32 C2.33 32 2.66 32 3 32 C3.33 38.27 3.66 44.54 4 51 C3.01 51.495 3.01 51.495 2 52 C1.34 52.99 0.68 53.98 0 55 C0 36.85 0 18.7 0 0 Z " fill="#10388B" transform="translate(60,116)"/>
<path d="M0 0 C0.66 0.66 1.32 1.32 2 2 C4.74485593 2.14507695 7.38480543 2.18652423 10.125 2.125 C11.25615234 2.11146484 11.25615234 2.11146484 12.41015625 2.09765625 C14.27357254 2.0740687 16.13682593 2.03819719 18 2 C18 1.34 18 0.68 18 0 C21.63 0 25.26 0 29 0 C26 4 26 4 24.0827179 4.48101807 C23.00016975 4.4676944 23.00016975 4.4676944 21.89575195 4.45410156 C21.07512772 4.45379944 20.25450348 4.45349731 19.40901184 4.45318604 C18.0870002 4.42221832 18.0870002 4.42221832 16.73828125 4.390625 C15.83248825 4.38496521 14.92669525 4.37930542 13.99345398 4.37347412 C11.09926589 4.35107616 8.2063141 4.30087392 5.3125 4.25 C3.35092933 4.2299394 1.38933927 4.21168786 -0.57226562 4.1953125 C-5.38198706 4.15120018 -10.1907839 4.08214941 -15 4 C-15 3.67 -15 3.34 -15 3 C-13.62714844 2.92652344 -13.62714844 2.92652344 -12.2265625 2.8515625 C-11.03804687 2.77679688 -9.84953125 2.70203125 -8.625 2.625 C-7.44164062 2.55539063 -6.25828125 2.48578125 -5.0390625 2.4140625 C-1.89437681 2.29782654 -1.89437681 2.29782654 0 0 Z " fill="#675FC9" transform="translate(226,90)"/>
<path d="M0 0 C1.485 0.99 1.485 0.99 3 2 C3 2.66 3 3.32 3 4 C3.66 4 4.32 4 5 4 C9.97458078 11.10392163 10.85425976 17.42782385 11 26 C7.37 26 3.74 26 0 26 C0.33 25.34 0.66 24.68 1 24 C2.33076989 23.65657551 3.66431979 23.32380126 5 23 C7.2059511 21.20887832 7.2059511 21.20887832 7.25 18.8125 C6.94423431 15.37263604 6.03159353 12.28820438 5 9 C4.34 9 3.68 9 3 9 C3 8.01 3 7.02 3 6 C2.34 6 1.68 6 1 6 C0.67 4.02 0.34 2.04 0 0 Z " fill="#796ACE" transform="translate(274,68)"/>
<path d="M0 0 C1.21236328 0.04060547 1.21236328 0.04060547 2.44921875 0.08203125 C3.06410156 0.11683594 3.67898437 0.15164062 4.3125 0.1875 C4.6425 1.1775 4.9725 2.1675 5.3125 3.1875 C4.219375 2.98125 3.12625 2.775 2 2.5625 C-1.7713401 1.78403475 -1.7713401 1.78403475 -4.6875 4.1875 C-5.27342634 7.30360554 -5.27342634 7.30360554 -5.375 10.8125 C-5.44074219 12.00101563 -5.50648438 13.18953125 -5.57421875 14.4140625 C-5.61160156 15.32929688 -5.64898437 16.24453125 -5.6875 17.1875 C-6.68652344 17.24808594 -7.68554688 17.30867188 -8.71484375 17.37109375 C-10.00519531 17.45488281 -11.29554688 17.53867188 -12.625 17.625 C-13.91277344 17.70621094 -15.20054687 17.78742188 -16.52734375 17.87109375 C-19.54773957 17.83669188 -19.54773957 17.83669188 -20.6875 19.1875 C-20.75898199 20.53993917 -20.77149454 21.89584367 -20.75 23.25 C-20.729375 24.549375 -20.70875 25.84875 -20.6875 27.1875 C-21.3475 26.8575 -22.0075 26.5275 -22.6875 26.1875 C-22.74149736 24.72957116 -22.78029177 23.27107288 -22.8125 21.8125 C-22.84730469 20.59433594 -22.84730469 20.59433594 -22.8828125 19.3515625 C-22.6875 17.1875 -22.6875 17.1875 -20.6875 15.1875 C-17.6484375 14.9921875 -17.6484375 14.9921875 -14.0625 15.0625 C-12.27972656 15.08957031 -12.27972656 15.08957031 -10.4609375 15.1171875 C-9.54570312 15.14039063 -8.63046875 15.16359375 -7.6875 15.1875 C-7.72230469 14.35605469 -7.75710937 13.52460938 -7.79296875 12.66796875 C-7.82003906 11.58128906 -7.84710938 10.49460938 -7.875 9.375 C-7.92720703 7.75658203 -7.92720703 7.75658203 -7.98046875 6.10546875 C-7.6875 3.1875 -7.6875 3.1875 -6.46875 1.3125 C-4.16650596 -0.14154886 -2.70198432 -0.11747758 0 0 Z " fill="#E0E6F2" transform="translate(172.6875,146.8125)"/>
<path d="M0 0 C1.02522011 -0.00021904 1.02522011 -0.00021904 2.07115173 -0.0004425 C4.31659181 0.00025078 6.56194757 0.00801565 8.80737305 0.01586914 C10.3696437 0.0177354 11.93191495 0.01915832 13.4941864 0.02015686 C17.59589264 0.02396567 21.69756318 0.03378193 25.79925537 0.04486084 C29.98880531 0.05511019 34.17836105 0.05966202 38.36791992 0.06469727 C46.58082688 0.07540572 54.79370489 0.09246242 63.0065918 0.11352539 C63.0065918 0.44352539 63.0065918 0.77352539 63.0065918 1.11352539 C61.78629776 1.12565567 61.78629776 1.12565567 60.54135132 1.13803101 C52.8612534 1.21608691 45.18134245 1.30341049 37.50147057 1.40105247 C33.55350611 1.4509225 29.60556721 1.49725305 25.6574707 1.53540039 C21.84480083 1.57237102 18.03234969 1.6187623 14.21986771 1.6715889 C12.76791866 1.69007045 11.31592283 1.70520128 9.86390305 1.71686935 C7.82448855 1.73383937 5.78556819 1.76289839 3.74633789 1.79467773 C2.00759903 1.81466324 2.00759903 1.81466324 0.23373413 1.83505249 C-3.12488337 2.1248705 -5.83202175 2.9813385 -8.9934082 4.11352539 C-11.8684082 4.23852539 -11.8684082 4.23852539 -13.9934082 4.11352539 C-11.9934082 1.11352539 -11.9934082 1.11352539 -9.80549622 0.43312073 C-6.51377024 0.05901427 -3.31391515 -0.00597102 0 0 Z " fill="#3239B7" transform="translate(159.993408203125,107.886474609375)"/>
<path d="M0 0 C6.27 0.33 12.54 0.66 19 1 C19.33 2.32 19.66 3.64 20 5 C19.01 6.485 19.01 6.485 18 8 C18 7.01 18 6.02 18 5 C11.07 4.505 11.07 4.505 4 4 C3.67 5.65 3.34 7.3 3 9 C2.01 9 1.02 9 0 9 C0 8.34 0 7.68 0 7 C-0.66 6.67 -1.32 6.34 -2 6 C-1.34 4.02 -0.68 2.04 0 0 Z " fill="#4351C0" transform="translate(199,142)"/>
<path d="M0 0 C3.96521085 -0.0499542 7.93029631 -0.08597787 11.89575195 -0.10986328 C13.89736377 -0.12470245 15.89888812 -0.15013361 17.90039062 -0.17578125 C26.5080898 -0.21914497 34.23739601 -0.09803536 42 4 C40.02 4.99 40.02 4.99 38 6 C37.505 4.515 37.505 4.515 37 3 C35.98679688 3.01160156 34.97359375 3.02320313 33.9296875 3.03515625 C32.57812686 3.04454209 31.2265642 3.05364143 29.875 3.0625 C29.20984375 3.07087891 28.5446875 3.07925781 27.859375 3.08789062 C23.78408288 3.10786755 20.00149508 2.7347378 16 2 C11.65185844 1.66731301 7.76057367 1.49295089 4 4 C3.67 3.34 3.34 2.68 3 2 C2.01 1.34 1.02 0.68 0 0 Z " fill="#7B6CCF" transform="translate(220,55)"/>
<path d="M0 0 C-2.65109482 2.65109482 -4.56772021 2.57241066 -8.25 3.1875 C-17.15362707 4.98473059 -25.68962626 8.37184369 -32.71484375 14.28515625 C-33.84599609 15.13400391 -33.84599609 15.13400391 -35 16 C-35.99 15.67 -36.98 15.34 -38 15 C-26.41707121 5.97114061 -14.98914108 -0.53532647 0 0 Z " fill="#E6EBF3" transform="translate(158,95)"/>
<path d="M0 0 C0.556875 0.226875 1.11375 0.45375 1.6875 0.6875 C0.6975 2.1725 0.6975 2.1725 -0.3125 3.6875 C0.3475 3.6875 1.0075 3.6875 1.6875 3.6875 C2.3475 4.3475 3.0075 5.0075 3.6875 5.6875 C4.3475 5.6875 5.0075 5.6875 5.6875 5.6875 C5.3575 7.6675 5.0275 9.6475 4.6875 11.6875 C3.6975 11.6875 2.7075 11.6875 1.6875 11.6875 C1.6875 10.6975 1.6875 9.7075 1.6875 8.6875 C1.0275 8.6875 0.3675 8.6875 -0.3125 8.6875 C-0.6425 8.0275 -0.9725 7.3675 -1.3125 6.6875 C-3.9525 6.6875 -6.5925 6.6875 -9.3125 6.6875 C-7.70234959 2.442558 -4.80443663 -0.64924819 0 0 Z " fill="#2136AA" transform="translate(143.3125,112.3125)"/>
<path d="M0 0 C1.33333333 0 2.66666667 0 4 0 C4.66 3.3 5.32 6.6 6 10 C9.465 9.505 9.465 9.505 13 9 C13.33 9.99 13.66 10.98 14 12 C9.38 12 4.76 12 0 12 C0 8.04 0 4.08 0 0 Z " fill="#2538AA" transform="translate(179,150)"/>
<path d="M0 0 C0 0.66 0 1.32 0 2 C-0.85722656 2.23074219 -1.71445313 2.46148437 -2.59765625 2.69921875 C-9.40085585 4.63970297 -14.48395781 6.58716624 -20 11 C-20.66 11 -21.32 11 -22 11 C-22.33 11.99 -22.66 12.98 -23 14 C-27.33333333 18.66666667 -27.33333333 18.66666667 -30 20 C-29.05264395 14.45120026 -25.27454915 11.37200505 -21 8 C-14.63241879 4.13409917 -7.53146288 0 0 0 Z " fill="#DCE3EF" transform="translate(161,120)"/>
<path d="M0 0 C0.99 0.33 1.98 0.66 3 1 C3 5.95 3 10.9 3 16 C2.34 16 1.68 16 1 16 C1 18.97 1 21.94 1 25 C-1.07786782 21.88319828 -1.24955914 21.19283758 -1.23046875 17.65625 C-1.22853516 16.82222656 -1.22660156 15.98820312 -1.22460938 15.12890625 C-1.20624023 13.82759766 -1.20624023 13.82759766 -1.1875 12.5 C-1.18685547 11.63246094 -1.18621094 10.76492187 -1.18554688 9.87109375 C-1.14069283 3.42207848 -1.14069283 3.42207848 0 0 Z " fill="#1C46A2" transform="translate(61,84)"/>
<path d="M0 0 C5.28 0 10.56 0 16 0 C16 0.99 16 1.98 16 3 C14.9275 2.979375 13.855 2.95875 12.75 2.9375 C9.85209576 2.9857984 7.71387859 3.13155885 5 4 C5 5.98 5 7.96 5 10 C4.01 9.67 3.02 9.34 2 9 C0.95888271 6.05480723 0.56463316 3.08376572 0 0 Z " fill="#193173" transform="translate(59,245)"/>
<path d="M0 0 C0.33 0 0.66 0 1 0 C1.02578125 0.91523438 1.0515625 1.83046875 1.078125 2.7734375 C1.13484375 3.96195313 1.1915625 5.15046875 1.25 6.375 C1.29640625 7.55835938 1.3428125 8.74171875 1.390625 9.9609375 C1.59171875 10.96382812 1.7928125 11.96671875 2 13 C3.87727902 14.29284043 3.87727902 14.29284043 6 15 C6.99 16.485 6.99 16.485 8 18 C6.68 18.33 5.36 18.66 4 19 C4.37253906 19.69867188 4.74507812 20.39734375 5.12890625 21.1171875 C5.60199219 22.02726562 6.07507813 22.93734375 6.5625 23.875 C7.03816406 24.77992188 7.51382813 25.68484375 8.00390625 26.6171875 C8.33261719 27.40351563 8.66132813 28.18984375 9 29 C8.67 29.66 8.34 30.32 8 31 C0.95251623 20.18499346 -0.35336659 12.87824911 0 0 Z " fill="#4266AF" transform="translate(134,162)"/>
<path d="M0 0 C2 2 2 2 2 5 C2.66 5 3.32 5 4 5 C4.16864144 8.04156875 4.33497753 11.08323453 4.5 14.125 C4.54769531 14.9809375 4.59539062 15.836875 4.64453125 16.71875 C4.88325644 21.15221786 5.05825595 25.55798349 5 30 C4.01 29.67 3.02 29.34 2 29 C1.34 29.33 0.68 29.66 0 30 C0.16242188 29.36964844 0.32484375 28.73929688 0.4921875 28.08984375 C1.18096109 23.89892136 1.14458166 19.8019304 1.125 15.5625 C1.12886719 14.72912109 1.13273438 13.89574219 1.13671875 13.03710938 C1.12966873 8.57797413 0.89916791 4.38879575 0 0 Z " fill="#525BBF" transform="translate(220,156)"/>
<path d="M0 0 C0 0.99 0 1.98 0 3 C-6.6 3 -13.2 3 -20 3 C-20.33 2.01 -20.66 1.02 -21 0 C-18.62543835 -0.1963696 -16.25079981 -0.38231294 -13.875 -0.5625 C-13.20984375 -0.61857422 -12.5446875 -0.67464844 -11.859375 -0.73242188 C-7.7271959 -1.03625857 -4.05304259 -0.85227531 0 0 Z " fill="#0D348F" transform="translate(153,228)"/>
<path d="M0 0 C0.33 0.99 0.66 1.98 1 3 C-0.45765165 4.62561151 -1.91614386 6.25046934 -3.375 7.875 C-4.18710938 8.77992188 -4.99921875 9.68484375 -5.8359375 10.6171875 C-9.68730964 14.85786802 -9.68730964 14.85786802 -12.0625 15.9375 C-14.34565884 16.90403542 -14.34565884 16.90403542 -15 20 C-16.65 19.67 -18.3 19.34 -20 19 C-18.60878255 16.2175651 -16.69835788 15.44789935 -14 14 C-13.34 14 -12.68 14 -12 14 C-12 13.34 -12 12.68 -12 12 C-10.390625 10.44921875 -10.390625 10.44921875 -8.25 8.6875 C-5.09829823 6.01637687 -2.44230671 3.35817172 0 0 Z " fill="#2F53B0" transform="translate(234,217)"/>
<path d="M0 0 C0.99 0 1.98 0 3 0 C3 1.98 3 3.96 3 6 C3.99 6 4.98 6 6 6 C4.125 10.75 4.125 10.75 3 13 C1.68 13 0.36 13 -1 13 C-1.02686553 11.02090602 -1.04633375 9.04171029 -1.0625 7.0625 C-1.07410156 5.96035156 -1.08570313 4.85820312 -1.09765625 3.72265625 C-1 1 -1 1 0 0 Z " fill="#0A2B75" transform="translate(61,193)"/>
<path d="M0 0 C0.66 0.33 1.32 0.66 2 1 C0.62977947 5.14729851 -1.20185707 7.58232069 -4.3125 10.625 C-5.07175781 11.38039062 -5.83101562 12.13578125 -6.61328125 12.9140625 C-8.95349792 14.95935824 -11.28879752 16.49324322 -14 18 C-14.33 16.68 -14.66 15.36 -15 14 C-14.12988281 13.48953125 -14.12988281 13.48953125 -13.2421875 12.96875 C-7.48110612 9.39421766 -3.6799529 5.68588802 0 0 Z " fill="#3050B0" transform="translate(223,205)"/>
<path d="M0 0 C0.33 1.32 0.66 2.64 1 4 C-0.58941406 3.98259766 -0.58941406 3.98259766 -2.2109375 3.96484375 C-3.59895658 3.95546524 -4.98697755 3.94636511 -6.375 3.9375 C-7.42300781 3.92493164 -7.42300781 3.92493164 -8.4921875 3.91210938 C-12.37295376 3.8164558 -12.37295376 3.8164558 -16 5 C-16 4.01 -16 3.02 -16 2 C-16.99 1.67 -17.98 1.34 -19 1 C-16.77100213 0.83109082 -14.54179338 0.66496313 -12.3125 0.5 C-10.45044922 0.36078125 -10.45044922 0.36078125 -8.55078125 0.21875 C-5.68500671 0.04220063 -2.86900043 -0.04388528 0 0 Z " fill="#17439C" transform="translate(192,244)"/>
<path d="M0 0 C0.99 0.66 1.98 1.32 3 2 C2.01 7.94 1.02 13.88 0 20 C-3 16 -3 16 -2.8125 13.375 C-2.544375 12.26125 -2.27625 11.1475 -2 10 C-1.64079507 8.20933663 -1.28690534 6.41760129 -0.9375 4.625 C-0.62594465 3.08314215 -0.31376521 1.54140966 0 0 Z " fill="#1F4AA2" transform="translate(97,137)"/>
<path d="M0 0 C0.33 0 0.66 0 1 0 C0.62491618 7.7517322 -1.23272819 14.94974064 -6.6640625 20.7890625 C-7.10492188 21.18867188 -7.54578125 21.58828125 -8 22 C-8.66 21.67 -9.32 21.34 -10 21 C-9.61328125 20.48953125 -9.2265625 19.9790625 -8.828125 19.453125 C-4.44053179 13.32787111 -2.07546454 7.21529144 0 0 Z " fill="#D4DCE7" transform="translate(232,190)"/>
<path d="M0 0 C0.33 0 0.66 0 1 0 C1 4.29 1 8.58 1 13 C-3.29 13 -7.58 13 -12 13 C-12.2165625 15.165625 -12.2165625 15.165625 -12.4375 17.375 C-12.875 21.75 -12.875 21.75 -14 24 C-15.58894072 22.41105928 -15.16998411 20.75198576 -15.1875 18.5625 C-15.20167969 17.75941406 -15.21585938 16.95632812 -15.23046875 16.12890625 C-15 14 -15 14 -13 12 C-9.9609375 11.8046875 -9.9609375 11.8046875 -6.375 11.875 C-4.59222656 11.90207031 -4.59222656 11.90207031 -2.7734375 11.9296875 C-1.85820312 11.95289063 -0.94296875 11.97609375 0 12 C0 8.04 0 4.08 0 0 Z " fill="#9BA8D1" transform="translate(165,150)"/>
<path d="M0 0 C1.485 0.99 1.485 0.99 3 2 C3 2.66 3 3.32 3 4 C3.66 4 4.32 4 5 4 C5.86646667 5.43011973 6.71781829 6.86940619 7.5625 8.3125 C8.03816406 9.11300781 8.51382812 9.91351563 9.00390625 10.73828125 C10 13 10 13 9 16 C5 11.25 5 11.25 5 9 C4.34 9 3.68 9 3 9 C3 8.01 3 7.02 3 6 C2.34 6 1.68 6 1 6 C0.67 4.02 0.34 2.04 0 0 Z " fill="#ABA4DE" transform="translate(274,68)"/>
<path d="M0 0 C0.66 0.33 1.32 0.66 2 1 C-2.82667107 6.63111625 -9.13389293 10.66671491 -16.625 11.3125 C-17.40875 11.209375 -18.1925 11.10625 -19 11 C-18.47664062 10.7421875 -17.95328125 10.484375 -17.4140625 10.21875 C-14.37875615 8.68636233 -11.375925 7.09868691 -8.375 5.5 C-7.22773438 4.8915625 -6.08046875 4.283125 -4.8984375 3.65625 C-1.98412616 2.15953777 -1.98412616 2.15953777 0 0 Z " fill="#E3E9F2" transform="translate(200,196)"/>
<path d="M0 0 C0.66 0.99 1.32 1.98 2 3 C1.195625 3.45375 0.39125 3.9075 -0.4375 4.375 C-3.08856572 5.74725665 -3.08856572 5.74725665 -4 8 C-5.33333333 8.33333333 -6.66666667 8.66666667 -8 9 C-8.33 9.66 -8.66 10.32 -9 11 C-11.375 12.25 -11.375 12.25 -14 13 C-14.99 12.34 -15.98 11.68 -17 11 C-16.32453125 10.67386719 -15.6490625 10.34773437 -14.953125 10.01171875 C-13.61507812 9.35623047 -13.61507812 9.35623047 -12.25 8.6875 C-10.92742187 8.04361328 -10.92742187 8.04361328 -9.578125 7.38671875 C-6.98339185 6.07633928 -6.98339185 6.07633928 -4.796875 4.33203125 C-3 3 -3 3 -1 3 C-0.67 2.01 -0.34 1.02 0 0 Z " fill="#2F55AE" transform="translate(209,205)"/>
<path d="M0 0 C0.33 0 0.66 0 1 0 C1.25553687 4.06129094 1.47479727 8.12375836 1.6875 12.1875 C1.76033203 13.33798828 1.83316406 14.48847656 1.90820312 15.67382812 C1.96298828 16.78564453 2.01777344 17.89746094 2.07421875 19.04296875 C2.13182373 20.06414795 2.18942871 21.08532715 2.2487793 22.13745117 C1.95890888 25.47280997 0.90630794 27.28759613 -1 30 C-2.01458504 26.8435132 -1.79128979 25.15950959 -1 22 C-0.8562677 20.2683761 -0.75425068 18.53301667 -0.68359375 16.796875 C-0.64169922 15.8171875 -0.59980469 14.8375 -0.55664062 13.828125 C-0.51732422 12.81234375 -0.47800781 11.7965625 -0.4375 10.75 C-0.39431641 9.71875 -0.35113281 8.6875 -0.30664062 7.625 C-0.20074318 5.0834613 -0.09866557 2.54182804 0 0 Z " fill="#5D65BD" transform="translate(247,165)"/>
<path d="M0 0 C9.57 0 19.14 0 29 0 C28.01 0.33 27.02 0.66 26 1 C26 1.66 26 2.32 26 3 C20.15189572 3.12127405 14.33958589 2.96815092 8.5 2.625 C7.3140625 2.55539063 6.128125 2.48578125 4.90625 2.4140625 C2 2 2 2 0 0 Z " fill="#224BA0" transform="translate(154,219)"/>
<path d="M0 0 C0.33 0 0.66 0 1 0 C2.32 6.6 3.64 13.2 5 20 C4.01 19.34 3.02 18.68 2 18 C2 16.68 2 15.36 2 14 C1.34 14 0.68 14 0 14 C0 9.38 0 4.76 0 0 Z " fill="#A1B8D3" transform="translate(97,174)"/>
<path d="M0 0 C2.45898655 -0.08076963 4.91533742 -0.14037143 7.375 -0.1875 C8.07367188 -0.21263672 8.77234375 -0.23777344 9.4921875 -0.26367188 C11.5234375 -0.29296875 11.5234375 -0.29296875 15 0 C15.66 0.99 16.32 1.98 17 3 C10.07 2.505 10.07 2.505 3 2 C2.67 2.66 2.34 3.32 2 4 C1.34 2.68 0.68 1.36 0 0 Z " fill="#D6DBEC" transform="translate(200,144)"/>
<path d="M0 0 C2.97 0.33 5.94 0.66 9 1 C9 1.99 9 2.98 9 4 C2.375 5.25 2.375 5.25 -1 3 C-0.67 2.01 -0.34 1.02 0 0 Z " fill="#1A3DA1" transform="translate(182,199)"/>
<path d="M0 0 C2.32590854 3.63423209 2.16265833 6.77088331 2 11 C1.01 11.495 1.01 11.495 0 12 C-0.67154933 10.71086513 -1.33708859 9.41859796 -2 8.125 C-2.37125 7.40570313 -2.7425 6.68640625 -3.125 5.9453125 C-4 4 -4 4 -4 2 C-2.68 1.34 -1.36 0.68 0 0 Z " fill="#143CA1" transform="translate(142,179)"/>
<path d="M0 0 C3.85816731 3.50153 5.71910483 7.88674523 6.1875 13.078125 C6.1875 14.71994004 6.10241361 16.36138226 6 18 C3.43383368 14.15075052 3.44902324 11.5650696 3 7 C2.01 6.67 1.02 6.34 0 6 C0 4.02 0 2.04 0 0 Z " fill="#9BA3D2" transform="translate(203,148)"/>
<path d="M0 0 C4.62 0 9.24 0 14 0 C14.33 0.66 14.66 1.32 15 2 C11.04 2 7.08 2 3 2 C2.67 3.32 2.34 4.64 2 6 C1.34 4.02 0.68 2.04 0 0 Z " fill="#DADCEF" transform="translate(229,144)"/>
<path d="M0 0 C3.63 0 7.26 0 11 0 C10.34 1.32 9.68 2.64 9 4 C6.525 3.01 6.525 3.01 4 2 C3.67 2.99 3.34 3.98 3 5 C2.34 4.67 1.68 4.34 1 4 C0.67 2.68 0.34 1.36 0 0 Z " fill="#5E58CB" transform="translate(255,133)"/>
<path d="M0 0 C0 1.32 0 2.64 0 4 C-3 6 -3 6 -6 6 C-6.33 4.35 -6.66 2.7 -7 1 C-3.375 -1.125 -3.375 -1.125 0 0 Z " fill="#273EAB" transform="translate(131,99)"/>
<path d="M0 0 C2.64 0 5.28 0 8 0 C7.67 0.66 7.34 1.32 7 2 C4.9375 2.625 4.9375 2.625 3 3 C3 4.98 3 6.96 3 9 C2.01 8.67 1.02 8.34 0 8 C0 5.36 0 2.72 0 0 Z " fill="#061D60" transform="translate(61,246)"/>
<path d="M0 0 C-3.49808262 2.33205508 -4.90894125 2.08349099 -9 2 C-11.26566343 2.43941523 -11.26566343 2.43941523 -13 3 C-13.33 2.01 -13.66 1.02 -14 0 C-9.20699867 -1.39151652 -4.84864218 -0.68662689 0 0 Z " fill="#615BCA" transform="translate(284,133)"/>
<path d="M0 0 C-4.86628419 2.62030687 -9.4185702 4.3283194 -15 4 C-13 1 -13 1 -10.875 0.3125 C-7.22010878 -0.08477078 -3.67638613 -0.06231163 0 0 Z " fill="#3645B0" transform="translate(161,108)"/>
<path d="M0 0 C3.63 0 7.26 0 11 0 C10.01 1.485 10.01 1.485 9 3 C7.0546875 3.29296875 7.0546875 3.29296875 4.875 3.1875 C3.59625 3.125625 2.3175 3.06375 1 3 C0.67 2.01 0.34 1.02 0 0 Z " fill="#5F52CD" transform="translate(244,90)"/>
<path d="M0 0 C0.33 0 0.66 0 1 0 C1 4.62 1 9.24 1 14 C1.66 14 2.32 14 3 14 C3 14.99 3 15.98 3 17 C2.01 17 1.02 17 0 17 C-0.89316269 11.06390334 -0.97040422 5.93024803 0 0 Z " fill="#23509D" transform="translate(96,174)"/>
<path d="M0 0 C2.64 0 5.28 0 8 0 C7.67 1.32 7.34 2.64 7 4 C5.02 4 3.04 4 1 4 C0.67 2.68 0.34 1.36 0 0 Z " fill="#404CC2" transform="translate(196,133)"/>
<path d="M0 0 C-0.33 0.99 -0.66 1.98 -1 3 C-2.8871875 2.9071875 -2.8871875 2.9071875 -4.8125 2.8125 C-8.16958979 2.76367078 -8.16958979 2.76367078 -11 4.5 C-11.495 5.2425 -11.495 5.2425 -12 6 C-12.33 4.35 -12.66 2.7 -13 1 C-11.39602723 0.83147753 -9.7918131 0.66525114 -8.1875 0.5 C-7.29417969 0.4071875 -6.40085938 0.314375 -5.48046875 0.21875 C-3 0 -3 0 0 0 Z " fill="#1F3CA6" transform="translate(192,175)"/>
<path d="M0 0 C0.99 0.495 0.99 0.495 2 1 C2.703125 3.14453125 2.703125 3.14453125 3.25 5.8125 C3.44078125 6.68519531 3.6315625 7.55789062 3.828125 8.45703125 C4.021173 11.31326419 3.49656204 12.6043839 2 15 C1.66048381 13.43883181 1.32867456 11.87598662 1 10.3125 C0.814375 9.44238281 0.62875 8.57226562 0.4375 7.67578125 C0.01027953 5.06287036 -0.07616201 2.64186962 0 0 Z " fill="#7070C9" transform="translate(244,146)"/>
<path d="M0 0 C0.99 0.33 1.98 0.66 3 1 C3.1875 3.375 3.1875 3.375 3 6 C2.01 6.66 1.02 7.32 0 8 C-1.125 6.25 -1.125 6.25 -2 4 C-1.125 1.75 -1.125 1.75 0 0 Z " fill="#1A3B9C" transform="translate(105,119)"/>
<path d="M0 0 C0.99 0.33 1.98 0.66 3 1 C2.01 1.33 1.02 1.66 0 2 C-0.33 2.99 -0.66 3.98 -1 5 C-5.33333333 9.66666667 -5.33333333 9.66666667 -8 11 C-7.43040847 7.37386801 -6.07625466 5.74482259 -3.4375 3.25 C-2.79683594 2.63640625 -2.15617188 2.0228125 -1.49609375 1.390625 C-1.00238281 0.93171875 -0.50867188 0.4728125 0 0 Z " fill="#EBF0F4" transform="translate(139,129)"/>
<path d="M0 0 C0.33 1.32 0.66 2.64 1 4 C-4.28 4 -9.56 4 -15 4 C-15 3.67 -15 3.34 -15 3 C-13.62714844 2.92652344 -13.62714844 2.92652344 -12.2265625 2.8515625 C-11.03804687 2.77679688 -9.84953125 2.70203125 -8.625 2.625 C-7.44164062 2.55539063 -6.25828125 2.48578125 -5.0390625 2.4140625 C-1.89437681 2.29782654 -1.89437681 2.29782654 0 0 Z " fill="#5B58C6" transform="translate(226,90)"/>
<path d="M0 0 C3.43950364 0.61198376 5.51564485 1.92058847 8.25 4.0625 C8.95640625 4.61035156 9.6628125 5.15820312 10.390625 5.72265625 C11.18726563 6.35494141 11.18726563 6.35494141 12 7 C9 7 9 7 6.9375 5.9375 C5.9784375 5.4734375 5.9784375 5.4734375 5 5 C4.01 5.495 4.01 5.495 3 6 C2.01 4.02 1.02 2.04 0 0 Z " fill="#A597DE" transform="translate(262,60)"/>
<path d="M0 0 C0.66 0 1.32 0 2 0 C1.1875 1.9375 1.1875 1.9375 0 4 C-0.99 4.33 -1.98 4.66 -3 5 C-3.33 5.99 -3.66 6.98 -4 8 C-4.66 8 -5.32 8 -6 8 C-6 8.66 -6 9.32 -6 10 C-6.66 9.67 -7.32 9.34 -8 9 C-6.85459775 7.68712379 -5.70866567 6.37470979 -4.5625 5.0625 C-3.92441406 4.33160156 -3.28632813 3.60070312 -2.62890625 2.84765625 C-1.77458541 1.87860647 -0.91348825 0.91348825 0 0 Z " fill="#E8EDF3" transform="translate(221,212)"/>
<path d="M0 0 C0.66 0 1.32 0 2 0 C2 2.97 2 5.94 2 9 C1.01 9 0.02 9 -1 9 C-1.09765625 2.84765625 -1.09765625 2.84765625 -1 1 C-0.67 0.67 -0.34 0.34 0 0 Z " fill="#3F4CC0" transform="translate(249,180)"/>
<path d="M0 0 C4.95 0 9.9 0 15 0 C15.33 1.32 15.66 2.64 16 4 C15.01 5.485 15.01 5.485 14 7 C13.34 5.35 12.68 3.7 12 2 C8.04 1.67 4.08 1.34 0 1 C0 0.67 0 0.34 0 0 Z " fill="#4E58BD" transform="translate(203,143)"/>
<path d="M0 0 C0 2 0 2 -1.375 3.625 C-3 5 -3 5 -5 5 C-5 5.66 -5 6.32 -5 7 C-5.66 7 -6.32 7 -7 7 C-7.66 8.32 -8.32 9.64 -9 11 C-9.33 10.01 -9.66 9.02 -10 8 C-8.71451591 6.66070495 -7.42141845 5.32871357 -6.125 4 C-5.04605469 2.88625 -5.04605469 2.88625 -3.9453125 1.75 C-2 0 -2 0 0 0 Z " fill="#EEF3F7" transform="translate(121,111)"/>
<path d="M0 0 C2 2 2 2 2.3125 4.875 C1.9736202 8.26379801 1.27183419 9.53884629 -1 12 C-2.1200071 8.63997871 -1.8208325 7.36541324 -1 4 C-0.814375 3.236875 -0.62875 2.47375 -0.4375 1.6875 C-0.293125 1.130625 -0.14875 0.57375 0 0 Z " fill="#293DA7" transform="translate(205,178)"/>
<path d="M0 0 C2.97 0 5.94 0 9 0 C6 3 6 3 2.8125 3.1875 C1.4203125 3.0946875 1.4203125 3.0946875 0 3 C0 2.01 0 1.02 0 0 Z " fill="#5957C9" transform="translate(245,133)"/>
<path d="M0 0 C2.31 0.66 4.62 1.32 7 2 C6.67 3.32 6.34 4.64 6 6 C3.37812506 4.95125002 2.20628639 4.35068687 0.75 1.875 C0.5025 1.25625 0.255 0.6375 0 0 Z " fill="#09246F" transform="translate(73,270)"/>
<path d="M0 0 C0.66 0 1.32 0 2 0 C2 0.66 2 1.32 2 2 C2.66 2 3.32 2 4 2 C2.25 6.875 2.25 6.875 0 8 C-0.79953138 4.71303767 -1.09658936 3.28976808 0 0 Z " fill="#2241AD" transform="translate(71,69)"/>
<path d="M0 0 C-0.33 1.32 -0.66 2.64 -1 4 C-2.65 4 -4.3 4 -6 4 C-6.33 3.01 -6.66 2.02 -7 1 C-4.50935112 0.31292445 -2.62113708 0 0 0 Z " fill="#051E68" transform="translate(96,278)"/>
<path d="M0 0 C0.99 0.33 1.98 0.66 3 1 C1.625 3 1.625 3 0 5 C-0.66 5 -1.32 5 -2 5 C-2.66 6.32 -3.32 7.64 -4 9 C-4.66 8.67 -5.32 8.34 -6 8 C-4.02 5.36 -2.04 2.72 0 0 Z " fill="#3652B2" transform="translate(216,196)"/>
<path d="M0 0 C0.66 0.33 1.32 0.66 2 1 C1.125 6.75 1.125 6.75 0 9 C-0.66 9 -1.32 9 -2 9 C-1.125 1.125 -1.125 1.125 0 0 Z " fill="#1A3BA1" transform="translate(125,140)"/>
<path d="M0 0 C0.66 0.66 1.32 1.32 2 2 C4.57061311 2.64767793 4.57061311 2.64767793 7 3 C7 3.33 7 3.66 7 4 C2.45194365 4.17835515 -0.8794254 3.99785435 -5 2 C-5 1.67 -5 1.34 -5 1 C-2.625 0.375 -2.625 0.375 0 0 Z " fill="#7C8FB7" transform="translate(88,279)"/>
<path d="M0 0 C1 4 1 4 -0.9375 7.25 C-1.618125 8.1575 -2.29875 9.065 -3 10 C-3.99 9.67 -4.98 9.34 -6 9 C-4.02 6.03 -2.04 3.06 0 0 Z " fill="#D5DCEB" transform="translate(206,186)"/>
<path d="M0 0 C-3.42346555 3.14958831 -6.44262737 3.56179109 -11 4 C-3.77464789 -1.88732394 -3.77464789 -1.88732394 0 0 Z " fill="#CED6EA" transform="translate(144,98)"/>
<path d="M0 0 C-0.66 1.32 -1.32 2.64 -2 4 C-3.32 3.67 -4.64 3.34 -6 3 C-6 2.01 -6 1.02 -6 0 C-3 -1 -3 -1 0 0 Z " fill="#1C419C" transform="translate(216,237)"/>
<path d="M0 0 C0 3.90838866 -1.50567876 5.11594107 -4 8 C-4.66 7.67 -5.32 7.34 -6 7 C-2.25 1.125 -2.25 1.125 0 0 Z " fill="#DDE4ED" transform="translate(228,204)"/>
<path d="M0 0 C0.99 0.33 1.98 0.66 3 1 C3.94921875 3.06640625 3.94921875 3.06640625 4.6875 5.5625 C4.93886719 6.38878906 5.19023437 7.21507812 5.44921875 8.06640625 C5.63097656 8.70449219 5.81273437 9.34257812 6 10 C2.7156107 7.01000974 1.61916695 4.08646897 0 0 Z " fill="#5879B7" transform="translate(137,183)"/>
<path d="M0 0 C-0.99 1.485 -0.99 1.485 -2 3 C-4.97 2.505 -4.97 2.505 -8 2 C-6.14210462 -1.71579076 -3.44525918 -1.06921837 0 0 Z " fill="#3247AE" transform="translate(145,113)"/>
<path d="M0 0 C0.66 0.33 1.32 0.66 2 1 C2 1.99 2 2.98 2 4 C1.34 4 0.68 4 0 4 C0 4.66 0 5.32 0 6 C-0.99 5.67 -1.98 5.34 -3 5 C-2.67 3.68 -2.34 2.36 -2 1 C-1.34 1.33 -0.68 1.66 0 2 C0 1.34 0 0.68 0 0 Z " fill="#0D2872" transform="translate(70,261)"/>
<path d="M0 0 C0.66 0 1.32 0 2 0 C1.34 2.64 0.68 5.28 0 8 C-0.99 7.67 -1.98 7.34 -3 7 C-1.125 1.125 -1.125 1.125 0 0 Z " fill="#2142A3" transform="translate(118,132)"/>
<path d="M0 0 C2.31 0.33 4.62 0.66 7 1 C3.86501708 2.85776765 1.62528568 3.20140476 -2 3 C-1.34 2.01 -0.68 1.02 0 0 Z " fill="#21439E" transform="translate(250,280)"/>
<path d="M0 0 C2.35171131 0.59861742 4.6859378 1.26924352 7 2 C7.33 2.66 7.66 3.32 8 4 C6.68 4.33 5.36 4.66 4 5 C3.67 4.01 3.34 3.02 3 2 C2.01 2 1.02 2 0 2 C0 1.34 0 0.68 0 0 Z " fill="#9686DD" transform="translate(254,56)"/>
<path d="M0 0 C2.97 0 5.94 0 9 0 C7.68 1.32 6.36 2.64 5 4 C3.35 2.68 1.7 1.36 0 0 Z " fill="#776CCF" transform="translate(220,55)"/>
</svg>
